<?xml version="1.0" encoding="utf-8"?>
<!-- Generator: Adobe Illustrator 19.2.1, SVG Export Plug-In . SVG Version: 6.00 Build 0)  -->
<svg version="1.1" xmlns="http://www.w3.org/2000/svg" xmlns:xlink="http://www.w3.org/1999/xlink" x="0px" y="0px"
	 viewBox="0 0 612 463" style="enable-background:new 0 0 612 463;" xml:space="preserve">
<style type="text/css">
	.st0{display:none;}
	.st1{display:inline;fill:#4099D4;}
	.st2{display:inline;fill:#ADDBF5;}
	.st3{display:inline;opacity:0.71;fill:#ADDBF5;}
	.st4{opacity:0.5;}
	.st5{opacity:0.71;fill:#ADDBF5;}
	.st6{opacity:0.45;clip-path:url(#SVGID_2_);}
	.st7{fill:#4099D4;}
	.st8{display:inline;}
	.st9{fill:#ADDBF5;}
	.st10{fill:#419AD5;}
	.st11{display:inline;opacity:0.71;}
	.st12{display:inline;fill:#419AD5;}
	.st13{display:inline;opacity:0.35;fill:#4099D4;}
	.st14{display:inline;opacity:0.35;}
</style>
<g id="Layer_3" class="st0">
	<rect x="-9" y="-308" class="st1" width="630" height="810"/>
	<rect x="-255" y="29.7" class="st2" width="72" height="72"/>
	<rect x="-255" y="190.2" class="st3" width="72" height="72"/>
	<rect x="-255" y="109.9" class="st3" width="72" height="72"/>
</g>
<g id="Layer_5">
</g>
<g id="camera_shutter">
	<g class="st4">
		<path class="st5" d="M414.5,376.9c-2.5,1.9-4.9,3.9-7.5,5.7c-7,4.7-14.1,9.2-21.2,13.9c-1,0.7-1.7,0.5-2.6-0.4
			c-32-32-63.9-64-95.9-96c-0.4-0.4-0.7-0.8-1.2-1.4c65.5-17.8,130.7-35.4,196.2-53.2c0,0.7,0,1.3-0.1,1.8
			c-2.4,29.2-11.7,56.2-26.8,81.3c-5,8.3-10.7,16.2-16.9,23.7c-0.3,0.4-0.6,0.9-0.9,1.3C430,361.4,422.3,369.2,414.5,376.9z
			 M415,82.8c-1.3-1-2.5-1.9-3.8-2.9c-2.9-2.2-5.7-4.4-8.8-6.7c-17.8,65.7-35.5,131-53.3,196.5c0.7-0.2,1.1-0.2,1.5-0.3
			c43.7-11.8,87.4-23.7,131.1-35.5c1.1-0.3,1.5-0.8,1.5-1.9c0.6-11.5-0.4-22.8-2.6-34.1c-5.9-31-17.7-59.5-37-84.6
			c-1.9-2.5-3.8-5-5.7-7.4C430.3,98.2,422.6,90.5,415,82.8z M299.5,160.3c-0.7-0.7-1-1-1.4-1.4c-31.2-31.3-62.4-62.5-93.6-93.8
			c-3.1-3.1-4.8-3.3-8.6-1.1c-23.5,14.1-43.8,31.9-59.6,54.4c-19.8,28.1-31.7,59.2-34.9,93.6c0,0.5-0.1,1-0.1,1.8
			C167.4,195.9,233.3,178.1,299.5,160.3z M233.9,189.8c-43.8,11.8-87.6,23.7-131.4,35.5c-1.3,0.3-1.7,0.8-1.8,2.2
			c-0.4,29.2,5.7,56.9,18.2,83.2c13.2,28,31.8,51.8,56.5,70.6c2.4,1.8,4.9,3.5,7.5,5.4c17.7-65.9,35.3-131.5,53-197.4
			C235,189.5,234.5,189.6,233.9,189.8z M229.1,258.9c-0.2,0.9-0.4,1.5-0.6,2.1c-11.7,43.5-23.4,87-35.1,130.5
			c-0.4,1.3-0.1,1.9,1,2.7c15.8,9.8,32.9,16.6,50.9,20.9c42,10.2,83,7,122.8-9.9c1.6-0.7,3.3-1.5,5.1-2.3
			C325.1,354.9,277.2,307,229.1,258.9z M357,197c11.5-42.1,22.9-84.2,34.3-126.3c1-3.7,0.7-4.4-2.6-6.3c-8.5-4.7-17.2-8.9-26.2-12.5
			c-32.2-12.8-65.4-16.4-99.7-11.2c-17.4,2.7-34.2,7.7-50.4,14.4c-0.3,0.1-0.5,0.3-0.8,0.5c48.1,48.1,96.2,96.2,144.4,144.4
			C356.4,199,356.7,198,357,197z"/>
	</g>
	<g>
		<defs>
			<path id="SVGID_1_" d="M414.5,376.9c-2.5,1.9-4.9,3.9-7.5,5.7c-7,4.7-14.1,9.2-21.2,13.9c-1,0.7-1.7,0.5-2.6-0.4
				c-32-32-63.9-64-95.9-96c-0.4-0.4-0.7-0.8-1.2-1.4c65.5-17.8,130.7-35.4,196.2-53.2c0,0.7,0,1.3-0.1,1.8
				c-2.4,29.2-11.7,56.2-26.8,81.3c-5,8.3-10.7,16.2-16.9,23.7c-0.3,0.4-0.6,0.9-0.9,1.3C430,361.4,422.3,369.2,414.5,376.9z
				 M415,82.8c-1.3-1-2.5-1.9-3.8-2.9c-2.9-2.2-5.7-4.4-8.8-6.7c-17.8,65.7-35.5,131-53.3,196.5c0.7-0.2,1.1-0.2,1.5-0.3
				c43.7-11.8,87.4-23.7,131.1-35.5c1.1-0.3,1.5-0.8,1.5-1.9c0.6-11.5-0.4-22.8-2.6-34.1c-5.9-31-17.7-59.5-37-84.6
				c-1.9-2.5-3.8-5-5.7-7.4C430.3,98.2,422.6,90.5,415,82.8z M299.5,160.3c-0.7-0.7-1-1-1.4-1.4c-31.2-31.3-62.4-62.5-93.6-93.8
				c-3.1-3.1-4.8-3.3-8.6-1.1c-23.5,14.1-43.8,31.9-59.6,54.4c-19.8,28.1-31.7,59.2-34.9,93.6c0,0.5-0.1,1-0.1,1.8
				C167.4,195.9,233.3,178.1,299.5,160.3z M233.9,189.8c-43.8,11.8-87.6,23.7-131.4,35.5c-1.3,0.3-1.7,0.8-1.8,2.2
				c-0.4,29.2,5.7,56.9,18.2,83.2c13.2,28,31.8,51.8,56.5,70.6c2.4,1.8,4.9,3.5,7.5,5.4c17.7-65.9,35.3-131.5,53-197.4
				C235,189.5,234.5,189.6,233.9,189.8z M229.1,258.9c-0.2,0.9-0.4,1.5-0.6,2.1c-11.7,43.5-23.4,87-35.1,130.5
				c-0.4,1.3-0.1,1.9,1,2.7c15.8,9.8,32.9,16.6,50.9,20.9c42,10.2,83,7,122.8-9.9c1.6-0.7,3.3-1.5,5.1-2.3
				C325.1,354.9,277.2,307,229.1,258.9z M357,197c11.5-42.1,22.9-84.2,34.3-126.3c1-3.7,0.7-4.4-2.6-6.3
				c-8.5-4.7-17.2-8.9-26.2-12.5c-32.2-12.8-65.4-16.4-99.7-11.2c-17.4,2.7-34.2,7.7-50.4,14.4c-0.3,0.1-0.5,0.3-0.8,0.5
				c48.1,48.1,96.2,96.2,144.4,144.4C356.4,199,356.7,198,357,197z"/>
		</defs>
		<clipPath id="SVGID_2_">
			<use xlink:href="#SVGID_1_"  style="overflow:visible;"/>
		</clipPath>
		<g class="st6">
			<g>
				<path class="st7" d="M457.8,333.8c7.3-14.8,13.9-28.4,19.8-40.3c-2.6-8-4.9-15.1-7.4-22.7c4.6-1.1,4.6-4.2,3.8-7.8
					c-2.4-10.9-4.6-21.9-7.7-32.9c1.6,12.3-10.4,20.4-9.2,32.7c0.3,2.7-3.5,5.9-5.4,8.8c-0.6-0.2-1.2-0.4-1.7-0.6
					c-0.9-3.7-1.5-7.6-2.8-11.2c-1.1-2.9-3.2-5.5-4.4-8.4c-0.7-1.6-0.8-3.6-0.9-5.4c-0.1-2,0-4.1,0-6.5c-11.1,0-21.5,0-32.9,0
					c2,3.4,3.7,6.5,5.7,9.9c2.3-1.1,4.2-2.1,6-3c7.2,5.7,6.8,13.5-1.1,19.5c-4.2,3.2-8.7,5.9-13.7,9.3c-1.1-2.2-2.2-4.1-3.2-6
					c-4.8-9.4-9.6-18.8-14.6-28c-0.7-1.2-3-2.4-4.3-2.2c-1.1,0.2-2.7,2.5-2.6,3.8c0.1,2.7,0.8,5.6,2,8c2.5,5.5,5.5,10.7,8.3,16.1
					c5.8,11.2,9.4,12.9,21.2,9.9c0.9-0.2,1.8-0.4,4.1-0.8c-4.8,8.3-9,15.5-13.3,22.7c-1.1,1.8-2.3,3.5-3.4,5.2
					c-4.9,7.5-11.9,14.2-8.9,24.7c1,3.6-1.5,6.1-4.3,8.5c-2.4,2-4,5.1-5.8,7.9c-1.3,2-2.2,4.4-3.8,6.1c-4.4,4.4-9.5,8.1-13.5,12.8
					c-6,7-13.4,8.2-22,6.8c-2.9-9.4-5.9-18.9-8.7-28.5c-0.3-1.1,0.4-2.9,1.1-4c5.1-7.4,5-11.8-0.9-18.3c-2.3-2.5-4.5-5-7-7.8
					c1.6-1.5,2.9-2.7,4.5-4.2c-6.1-4-11.6-8.3-19.3-7.1c-1.5,0.2-3.1-0.3-4.5,0c-11.6,2.4-19.1-4.4-26.2-11.8c-0.9-1-1.4-2.6-1.7-4
					c-0.3-1.6,0-3.4-0.3-5.1c-3.3-15.3,2-26.7,15.1-35.1c4-2.6,7.4-6.3,10.8-9.9c6.4-6.6,14.7-7.3,22.9-6.6c2.4,0.2,4.3,4.8,6.5,7.3
					c-0.4,0.4-0.8,0.7-1.1,1.1c1.7,0.7,3.4,1.5,5.1,2.2c4.4,1.6,8.7,2.3,12.3-1.7c2.1-2.3,4-1.5,6.8-1c6.2,1.1,13.1,1.9,19.1,0.3
					c6.6-1.7,4.9-8,3.1-13.7c-2.1,3.4-4,6.4-6.3,10.2c-3.7-4.4-6.8-8.2-11-13.3c0.3,5,0.5,8.4,0.8,12.4c-4.2-1.2-8.3-2.2-8.5-6.6
					c-0.5-10.5-9.6-14.4-14.7-21.2c-0.5,0.2-1,0.4-1.4,0.6c0.2,1,0.1,2.3,0.6,3.1c1.6,2.3,3.5,4.5,5.2,6.7c4.3,5.3,4.2,6.3-0.4,10.4
					c-4.8-4.9-9.5-9.8-13.5-14c-5.8,2.6-10.5,3.9-14,6.6c-5.3,4.1-9.8,9.2-14.6,13.8c-0.5,0.5-1.2,0.8-2.7,1.8
					c-2.2-6.3-4.3-12.1-6.6-18.6c3,0,5.7,0.3,8.4-0.1c2.1-0.3,4.7-0.9,6-2.3c2.1-2.3,1.1-4.8-1.4-6.7c-0.7-0.5-1.2-1.4-2.6-3.2
					c4.3-2.6,8.1-5.4,12.4-7.4c6-2.8,9.4-9.9,6.9-16.5c1.2-0.8,2.5-1.7,4.1-2.8c5.5,9,12.5,2,19,3.1c0.7-9.8,10.6-8.9,14.8-14.3
					c-2.2-3.3-2.2-3.3-11.8,0.8c-5.2-5.6-5.2-5.6,0.7-14.3c-1.4-1.2-2.9-2.5-4.9-4.2c-2.2,4.6-4.1,8.6-5.8,12.7
					c-0.3,0.8-0.1,2.2,0.4,3c6.1,9.2,5.1,11.6-6.1,14.7c-3.6-5.3-3.6-5.3-15.1-4.5c1.2-5.2,1.9-10,3.4-14.6c1.2-3.7,4-7,5.1-10.7
					c2.6-8.7,7.9-14.2,16.8-16.1c2.7-0.6,5.5-1.2,8.1-0.9c7.3,0.7,14.5,1.9,21.6,2.9c0.4,8.1,0.4,8.1-9.8,10.1
					c2.9,2.3,5.3,4.2,8.2,6.6c2.6-3.6,5.4-6.7,7.2-10.3c3.1-6.1,7.1-10.4,14.2-10.3c-3.8-4.4-9.2-8-10.5-12.7
					c-1.7-6.1-0.2-13.1,5.1-18.6c1.3,1.2,2.7,2.3,3.9,3.5c-7.7,17.4-7.5,18.1,8.2,23.6c0-4.2,0-8.4,0-13c4.1,0,7.8,0,11,0
					c0.2-4,0.3-7.8,0.7-11.5c0.4-3.9,1-7.8,1.7-12.9c3.4,0.5,7.8,0,10,1.9c2.3,2,2.6,6.4,4.1,10.5c4.4-2.4,8.5-4.6,13-7
					c-1.8-2.7-3.1-4.6-4.4-6.6c6.2,0.3,6.2,0.3,10.5,5.4c9.9,11.9,19.7,23.7,23.9,39.2c0.8,3,3.9,5.4,5.3,8.4
					c3.5,7.4,6.9,14.8,9.8,22.5c0.9,2.3-0.4,5.3-0.1,7.9c0.4,3.3,1.3,6.6,2.9,9.9c0.2-0.7,0.5-1.5,0.7-2.2c0.3,0,0.7-0.1,1-0.1
					c0.6,4.9,1.1,9.8,1.7,14.6c-0.5,0.1-1.1,0.2-1.6,0.2c-0.3-2.4-0.5-4.9-0.9-7.9c-0.4,1.4-0.7,2.3-1.1,3.7c-1-1.8-1.7-3.2-2.5-4.6
					c-0.4,0-0.7,0.1-1.1,0.1c0.4,2.2,0.6,4.4,1.3,6.5c4.7,14.1,4.5,28-1.1,41.9c-0.9,2.2-0.8,5.2-0.3,7.6c1.6,7.6,1.6,9-3.2,16.4
					c-0.6-2-1.1-3.7-1.6-5.5c-0.5,0.1-1,0.1-1.5,0.2c0.8,4.1,1.5,8.2,2.4,12.2c0.3,1.5,1.5,4.1,1,4.4c-5.8,4.2-0.2,9.5-1.4,14.1
					c-0.3,1.2,1.8,3.1,3,5c1.4-1.4,2.1-2.3,3.2-3.4C481.9,301.6,467.2,330.5,457.8,333.8z M367.2,216.6c5.7-9.5,15.6-5.4,24.1-7.7
					c-3.4-3.8-4.4-9.7-11-9.2c-1.3,6.9-2.5,7.1-10.4,1C369.1,206,360.7,209,367.2,216.6z M411.7,197.6c-0.9,0-1.7-0.1-2.6-0.1
					c-4.3,7.8,1.6,14.6,1.9,23c2.4-1.6,3.8-2.6,5.3-3.6c-2.1-3.6-4.7-6.5-5.5-9.8C410.1,204.2,411.3,200.8,411.7,197.6z"/>
				<path class="st7" d="M180.9,210c-7-0.3-9.2,1.9-10.3,7.9c-0.4,2.4-2.2,5.2-4.2,6.5c-5.6,3.5-8.4,7.7-6.1,14.4c0.3,1,0,2.2,0,4.9
					c-2.3-1.9-4.8-2.9-5-4.1c-0.9-7.3-6.5-8.4-12-9.7c-1.3-0.3-2.5-0.7-4.3-1.1c-2.6,5.8-8.7,10.5-3.5,18.1c1.8,2.6,3,3.8,6.2,2.2
					c3.7-1.9,6,0,5.5,4.2c-0.4,4-2.1,8.1,3.5,10.2c0.9,0.3,0.9,3.1,1.1,4.7c0.9,6.7,5.9,10.5,12.3,8.1c5.8-2.2,10.4-2.1,15.6,1.7
					c2.6,1.9,6.8,2.1,10.3,2.5c3.7,0.4,5.5,2.1,5.3,5.7c-0.4,5.2,1.9,7.7,7.1,7.5c5-0.2,7.1,2.2,7.1,7c0,4.9,2.2,7.4,7.5,7.3
					c1.8-0.1,3.8,1.5,5.4,2.6c6.6,4.6,13.1,9.3,20.3,14.5c-6.7,4.8-7.6,11.1-6.9,18.2c0.2,1.7-1.8,3.9-3.2,5.5
					c-9.5,10.7-19,21.3-28.6,31.9c0.6,0.2,1.2,0.4,1.8,0.7c0.7,3.5,0.7,7.5,2.4,10.5c1.2,2.3,4.6,3.4,7,5c-0.8,0.9-1.6,1.8-2.4,2.7
					c-5.8-3.8-12.2-6.8-16.6-12.7c-9.7-12.8-12.8-27.9-14.4-43.4c-0.5-4.9-2-8.3-6.5-10.9c-2.9-1.7-5.4-4.7-7-7.6
					c-3.1-5.4-5.5-11.1-8.1-16.8c-2.3-4.9-4.5-9.3-1.3-15.3c2.9-5.4,0-8.9-5.8-11.1c-2.2-0.8-4-3.4-5.2-5.6c-1.8-3.3-1.8-7.9-7.2-8
					c-0.8,0-1.8-1.3-2.5-2.1c-6.8-8.7-15.4-16.2-17.7-27.7c-0.1-0.5-0.3-1.3-0.7-1.5c-11.2-7.5-8-20-10.4-30.4
					c-2.5-10.5-0.6-20.7,3.4-30.8c2.3-5.7,4-12.2,1.3-18.9c-0.7-1.8,1.6-4.7,2.4-7.1c2.3-6.6,5.1-13.2,1.9-21.1
					c-3.3,1.7-6,3.2-9.4,5c4-6.9,7.7-13.2,11.3-19.6c2.3-4,3.9-8.5,6.9-11.8c3.9-4.4,8.9-7.9,14.2-12.3c1.7,14.2,3.5,18.1,10.7,24.1
					c0.4-0.9,0.8-1.7,1-2.5c2.7-12.6,8.9-18.3,21.5-20.7c11.1-2.1,22.3-4,33.1-7.2c8.1-2.4,15.4-2,23.5,2.1
					c-3.3,2.5-6.2,4.9-9.2,7.2c-5.4,4.1-10.7,8.4-16.4,12c-3.6,2.3-4.1,4.8-2.9,8.5c3,8.9,6,17.8,9,27c-0.5,0.5-1.3,1.3-2.1,2
					c-10.7,9.4-10.7,9.4-23.7,1.1c2.1-3.8,4.2-7.6,6.4-11.5c-5.4-2.6-6.9-1-12.7,14c-0.5-0.1-1.2,0-1.6-0.3
					c-6.6-4.9-11-1.5-15.7,3.3c-3.2,3.3-3.1,7-0.6,8.8c6.5,4.8,7.2,11.9,9.3,19.1c8.5-6.9,5.7-18.1,11.6-25.9
					c5,2.3,10.2,4.5,15.2,6.9c1.1,0.5,2.1,1.7,2.5,2.8c3.3,8.8,6.5,17.6,10,27.1c-6.3,3.1-12.6,6.3-19.1,9.2
					C185.6,199.4,179.2,201.4,180.9,210z"/>
				<path class="st7" d="M224.2,109.1c-4.3,0.7-6.6,1.1-8.8,1.5c-1.4-4.4,0-7.2,3.3-10.4c10-9.7,20.9-15.8,35.5-14.5
					c5.9,0.5,12-0.8,17.9-1.9c4.5-0.8,7.5,0.3,9.8,4.3c1.6,2.7,3.7,5.1,5.9,8.1c-7.9,5.2-7.9,13.4-9.3,21.4c-0.9,5.6-5,10.6-7.5,16
					c-3.6,8-9.6,12.7-18.4,13.6c-7.3,0.8-11.7,4.9-14.3,11.6c-0.9,2.3-1.4,5.5-5.7,4.7c-4.1-0.8-6.2-2.1-7.7-6.5
					c-4.2-11.8-2.3-23.2,0.1-34.9C225.7,118.3,224.5,113.9,224.2,109.1z"/>
				<path class="st7" d="M268.9,150.4c13.9-5.5,14.6-5.4,20.3,3.6c-0.6,0.3-1.6,0.6-2.3,1.2c-3.5,2.7-7,5.5-11.3,9
					C273.3,159.2,271.1,154.8,268.9,150.4z"/>
				<path class="st7" d="M389.2,345.3c2.2-8.7,7.8-13.8,13.9-18.3c1-0.7,2.6-0.6,3.9-0.9c-0.1,1.3,0.2,2.9-0.3,4
					c-3.1,6.2-6.4,12.4-10.1,19.4C394,348,391.5,346.6,389.2,345.3z"/>
				<path class="st7" d="M299.2,193.3c7.1-8.1-0.5-11.2-3.5-16.2c1.5-1.7,3-3.5,4.1-4.7c3.8,4.4,7.6,8.1,10.7,12.4
					c1.2,1.7,1.1,4.6,0.8,6.8c-0.1,0.8-2.7,1.4-4.2,1.6C305.1,193.5,303.1,193.3,299.2,193.3z"/>
				<path class="st7" d="M459.6,305.1c-0.8,1.6-1.2,3.7-2.5,4.7c-5.2,4.2-6.5,10.3-8.6,16.1c-1.9,5.3-4.9,10.2-8,16.5
					C437.4,334.9,449.2,312.6,459.6,305.1z"/>
				<path class="st7" d="M480.5,278.8c1.8-7.1,3.5-14.3,5.4-22.1C491.4,268.6,491,270.6,480.5,278.8z"/>
				<path class="st7" d="M171.5,256.9c6.5,4.6,13,9.2,19.7,14c-3.5,1.2-17.2-5.1-20.6-9.4c-0.8-0.9-0.5-2.7-0.6-4.1
					C170.5,257.2,171,257,171.5,256.9z"/>
				<path class="st7" d="M292.8,194.9c-6.4-5.5-6.4-5.5-1-13.9c2,2.7,3.8,5.1,5.7,7.7C295.8,190.9,294.4,192.8,292.8,194.9z"/>
				<path class="st7" d="M155.8,245.1c2.6,4.8,11.3,3.8,8.6,12C153.8,254.1,152.8,253,155.8,245.1z"/>
			</g>
		</g>
	</g>
</g>
<g id="globe_layer">
</g>
<g id="icons" class="st0">
	<g class="st8">
		<g>
			<path class="st7" d="M-176.9-245.3c2.2,0.4,4.5,0.6,6.7,1.2c2.2,0.5,4.2,1.4,6.3,2.2c0.3,0.1,0.6,0.5,0.6,0.9
				c0.7,7.9,1.4,15.8,2,23.7c0.3,3.2,0.5,6.4,0.8,9.5c0,0.4,0,0.9,0,1.4c-18-3.6-33.6,1.7-47.7,12.9c-0.1-1.7-0.1-3.1-0.2-4.6
				c-0.3-8.7-0.6-17.5-1-26.2c-0.1-3-0.4-6-0.7-9c0-0.2-0.1-0.5-0.2-0.7c0-0.6,0-1.2,0-1.8c0.8-0.6,1.6-1.3,2.5-1.8
				c5.8-3.9,12.2-5.9,19-7c1.7-0.3,3.3-0.5,5-0.7C-181.4-245.3-179.1-245.3-176.9-245.3z M-193.9-218.6c0.6-0.2,1.2-0.3,1.6-0.4
				c0-0.6,0-1.2,0-1.7c-0.5-0.2-1.1-0.4-1.5-0.5c-0.4,0.5-0.7,0.9-1,1.3C-194.5-219.5-194.2-219-193.9-218.6z M-206.5-232.8
				c0.4-0.3,0.9-0.6,1.3-0.9c-0.1-0.5-0.2-1.1-0.3-1.6c-0.6-0.1-1.2-0.1-1.7-0.2c-0.2,0.5-0.4,1-0.6,1.5
				C-207.3-233.6-206.9-233.2-206.5-232.8z M-190.3-216.1c0.5-0.1,1.1-0.2,1.6-0.3c0.1-0.6,0.2-1.2,0.2-1.6
				c-0.5-0.2-1.1-0.4-1.5-0.6c-0.4,0.4-0.8,0.9-1.1,1.2C-190.9-217-190.6-216.5-190.3-216.1z M-193.8-210.7c0.6-0.2,1.1-0.3,1.6-0.5
				c0-0.6,0-1.1,0-1.6c-0.4-0.2-1-0.4-1.5-0.5c-0.3,0.4-0.7,0.9-1,1.3C-194.4-211.6-194.1-211.1-193.8-210.7z M-171.8-236.7
				c0.5,0.1,1.1,0.3,1.5,0.4c0.3-0.5,0.6-1,0.9-1.4c-0.4-0.4-0.8-0.9-1.1-1.2c-0.6,0.2-1.1,0.4-1.6,0.6
				C-172-237.8-171.9-237.2-171.8-236.7z M-166.3-241.6c-0.5,0.2-1.1,0.4-1.5,0.5c0,0.6-0.1,1.1-0.1,1.6c0.5,0.2,1.1,0.4,1.5,0.5
				c0.3-0.5,0.7-0.9,1-1.3C-165.7-240.7-166-241.1-166.3-241.6z M-179-239.4c-0.4,0.3-0.8,0.7-1.2,1c0.2,0.5,0.4,1.1,0.5,1.5
				c0.6,0,1.2,0,1.6,0c0.2-0.6,0.4-1.2,0.5-1.6C-178.1-238.8-178.6-239.1-179-239.4z M-197.9-238.6c-0.5-0.2-1-0.4-1.5-0.5
				c-0.3,0.4-0.6,0.9-0.9,1.3c0.3,0.4,0.7,0.9,1,1.3c0.5-0.2,1.1-0.4,1.5-0.6C-197.9-237.6-197.9-238.1-197.9-238.6z M-181.4-234.7
				c-0.5-0.3-1-0.6-1.3-0.8c-0.5,0.4-0.9,0.8-1.2,1c0.2,0.5,0.4,1.1,0.6,1.5c0.5-0.1,1.1-0.1,1.6-0.2
				C-181.6-233.6-181.5-234.1-181.4-234.7z M-199.9-206.9c-0.1-0.5-0.2-1.1-0.3-1.7c-0.5-0.1-1-0.2-1.5-0.2c-0.3,0.5-0.6,1-0.8,1.3
				c0.4,0.5,0.8,0.9,1.1,1.2C-200.9-206.5-200.4-206.7-199.9-206.9z M-175.1-219.9c0.1,0.6,0.3,1.1,0.4,1.6c0.5,0,1.1,0,1.6,0
				c0.2-0.5,0.4-1,0.6-1.4c-0.4-0.4-0.9-0.7-1.3-1C-174.2-220.5-174.7-220.2-175.1-219.9z M-178.6-232.1c-0.4,0.3-0.9,0.7-1.3,1
				c0.2,0.5,0.4,1.1,0.5,1.5c0.6,0,1.2,0,1.7,0c0.1-0.5,0.3-1.1,0.4-1.6C-177.7-231.4-178.2-231.8-178.6-232.1z M-170.8-231
				c0.2-0.2,0.4-0.4,0.6-0.6c-0.6,0.2-1.1,0.4-1.5,0.6c0.1,0.6,0.1,1.2,0.2,1.6c0.6,0.1,1.2,0.3,1.6,0.4c0.3-0.5,0.6-1,0.9-1.5
				c-0.1,0.2-0.2,0.3-0.3,0.5C-169.9-230.4-170.4-230.7-170.8-231z M-203.9-208.7c-0.1-0.5-0.3-1.1-0.4-1.6
				c-0.6-0.1-1.1-0.1-1.6-0.2c-0.2,0.5-0.5,1.1-0.7,1.5c0.4,0.4,0.9,0.8,1.2,1.1C-204.8-208.2-204.3-208.5-203.9-208.7z
				 M-196.9-229.1c0-0.6,0-1.2,0-1.7c-0.5-0.1-1.1-0.3-1.6-0.4c-0.3,0.4-0.6,0.9-0.9,1.3c0.3,0.5,0.7,0.9,0.9,1.3
				C-197.9-228.8-197.4-229-196.9-229.1z M-175.7-227.4c0.1,0.6,0.2,1.1,0.3,1.5c0.6,0.1,1.1,0.1,1.6,0.2c0.2-0.5,0.4-1,0.6-1.5
				c-0.4-0.4-0.9-0.8-1.2-1.1C-174.8-227.9-175.3-227.6-175.7-227.4z M-182.1-211.4c-0.1-0.2-0.3-0.3-0.4-0.5c0.3,0.5,0.5,1,0.7,1.5
				c0.5-0.1,1.1-0.2,1.6-0.3c0.1-0.5,0.2-1.1,0.2-1.7c-0.5-0.2-1-0.5-1.6-0.7c0.3,0.2,0.5,0.5,0.8,0.7
				C-181.2-212-181.7-211.7-182.1-211.4z M-167.5-225.2c0.4,0.1,1,0.3,1.5,0.5c0.4-0.5,0.7-0.9,1.1-1.3c-0.3-0.4-0.7-0.9-1-1.3
				c-0.5,0.1-1,0.3-1.5,0.4C-167.5-226.4-167.5-225.8-167.5-225.2z M-167.9-233.9c0,0.6,0,1.1,0,1.6c0.5,0.2,1,0.4,1.5,0.5
				c0.3-0.4,0.7-0.9,1-1.3c-0.3-0.4-0.7-0.9-1-1.3C-166.9-234.3-167.4-234.1-167.9-233.9z M-203.3-232.3c0.4,0.4,0.8,0.8,1.1,1.2
				c0.6-0.3,1.1-0.5,1.5-0.7c-0.1-0.6-0.1-1.2-0.1-1.6c-0.5-0.1-1.1-0.2-1.6-0.3C-202.7-233.2-203-232.7-203.3-232.3z M-186-223.7
				c-0.4,0.4-0.8,0.8-1.1,1.2c0.3,0.5,0.6,1,0.8,1.4c0.6-0.1,1.1-0.2,1.6-0.3c0.1-0.6,0.2-1.1,0.2-1.6
				C-185-223.2-185.5-223.4-186-223.7z M-196.6-221.2c0-0.6,0-1.1,0-1.6c-0.5-0.1-1.1-0.3-1.5-0.4c-0.3,0.5-0.7,0.9-0.9,1.3
				c0.3,0.5,0.7,1,1,1.4C-197.7-220.8-197.1-221-196.6-221.2z M-182.4-217.7c0.5-0.1,1.1-0.1,1.6-0.2c0.1-0.5,0.2-1.1,0.3-1.6
				c-0.5-0.3-1-0.5-1.4-0.8c-0.4,0.4-0.9,0.7-1.2,1C-182.9-218.8-182.7-218.3-182.4-217.7z M-200.1-215.7c-0.1-0.6-0.1-1.1-0.2-1.6
				c-0.5-0.1-1.1-0.2-1.6-0.3c-0.3,0.5-0.6,1-0.8,1.4c0.4,0.4,0.8,0.8,1.1,1.2C-201-215.3-200.5-215.5-200.1-215.7z M-185.9-215.7
				c0.2,0.2,0.4,0.3,0.5,0.5c-0.4,0.4-0.9,0.7-1.3,1.1c-0.1-0.2-0.2-0.3-0.4-0.5c0.3,0.5,0.6,1,0.8,1.4c0.6-0.1,1.2-0.2,1.6-0.2
				c0.1-0.6,0.1-1.2,0.2-1.6C-184.9-215.2-185.4-215.4-185.9-215.7z M-195.8-206.8c-0.5-0.1-1.1-0.3-1.6-0.4
				c-0.3,0.4-0.6,0.9-0.9,1.3c0.3,0.4,0.7,0.9,1,1.3c0.5-0.2,1.1-0.3,1.5-0.5C-195.8-205.7-195.8-206.3-195.8-206.8z M-181.9-240.4
				c0.1-0.5,0.2-1.1,0.3-1.6c-0.5-0.3-1-0.5-1.4-0.7c-0.4,0.4-0.9,0.8-1.2,1c0.2,0.5,0.4,1.1,0.6,1.5
				C-183-240.3-182.5-240.4-181.9-240.4z M-175.8-240.3c0.4,0,1.1,0.1,1.6,0.1c0.2-0.5,0.4-1,0.6-1.5c-0.4-0.4-0.9-0.8-1.2-1.1
				c-0.5,0.3-1,0.6-1.4,0.8C-176.1-241.4-175.9-240.9-175.8-240.3z M-178-224.5c-0.4,0.3-0.9,0.7-1.2,1c0.2,0.5,0.4,1.1,0.5,1.5
				c0.5,0,1.1,0,1.5-0.1c0.2-0.5,0.4-1.1,0.6-1.5C-177.1-223.9-177.6-224.2-178-224.5z M-197.7-212.9c0.5-0.2,1.1-0.4,1.5-0.5
				c0-0.6,0-1.1,0-1.6c-0.5-0.2-1.1-0.3-1.5-0.5c-0.3,0.4-0.7,0.9-1,1.3C-198.3-213.7-198-213.3-197.7-212.9z M-200.6-223.6
				c0-0.6-0.1-1.1-0.1-1.6c-0.6-0.1-1.1-0.2-1.6-0.3c-0.3,0.5-0.6,1-0.8,1.4c0.4,0.4,0.8,0.9,1.1,1.2
				C-201.5-223.2-201-223.4-200.6-223.6z M-174.2-211c0.5,0,1.1,0,1.6,0c0.2-0.5,0.4-1,0.5-1.5c-0.4-0.4-0.9-0.7-1.2-1
				c-0.5,0.3-1,0.6-1.4,0.9C-174.5-212-174.3-211.5-174.2-211z M-192.9-226.7c0-0.5,0.1-1.1,0.1-1.6c-0.5-0.2-1.1-0.3-1.5-0.5
				c-0.4,0.4-0.7,0.9-1,1.3c0.3,0.4,0.7,0.9,1,1.3C-193.9-226.4-193.4-226.6-192.9-226.7z M-165.1-217.5c0.2-0.5,0.5-1,0.7-1.6
				c-0.2,0.2-0.4,0.4-0.6,0.6c-0.3-0.5-0.6-1-0.9-1.5c-0.2,0.1-0.7,0.4-1.1,0.6c0.1,0.6,0.1,1.1,0.2,1.6
				C-166.3-217.6-165.7-217.5-165.1-217.5z M-205.9-201c0.4,0.4,0.8,0.7,1.2,1.1c0.5-0.3,1-0.6,1.4-0.8c-0.1-0.5-0.3-1.1-0.4-1.6
				c-0.5,0-1.1-0.1-1.5-0.1C-205.4-202-205.6-201.5-205.9-201z M-187.3-236.4c0.6-0.1,1.1-0.2,1.5-0.2c0.1-0.6,0.2-1.2,0.2-1.7
				c-0.5-0.2-1-0.4-1.5-0.7c-0.3,0.4-0.7,0.8-1.1,1.2C-187.9-237.3-187.6-236.9-187.3-236.4z M-174.9-235.8
				c-0.4,0.2-0.9,0.5-1.4,0.8c0.1,0.5,0.3,1.1,0.4,1.6c0.6,0,1.1,0.1,1.5,0.1c0.3-0.5,0.5-1.1,0.7-1.4
				C-174.1-235.1-174.5-235.4-174.9-235.8z M-190.1-239.3c0.1-0.5,0.1-1.1,0.2-1.6c-0.5-0.2-1.1-0.5-1.4-0.6
				c-0.4,0.4-0.8,0.8-1.1,1.2c0.3,0.4,0.6,1,0.8,1.4C-191.2-239-190.6-239.2-190.1-239.3z M-204.4-218.9c-0.5,0-1.1-0.1-1.6-0.1
				c-0.2,0.5-0.4,1-0.6,1.5c0.4,0.4,0.9,0.8,1.2,1.1c0.5-0.3,1-0.6,1.4-0.8C-204.1-217.8-204.3-218.3-204.4-218.9z M-181.4-225.4
				c0.1-0.5,0.3-1.1,0.4-1.6c-0.5-0.3-1-0.6-1.5-0.9c0.2,0.1,0.4,0.3,0.6,0.4c-0.4,0.4-0.8,0.9-1.3,1.3c-0.1-0.2-0.3-0.4-0.4-0.6
				c0.3,0.5,0.5,1.1,0.7,1.5C-182.4-225.4-181.9-225.4-181.4-225.4z M-205-227.3c-0.5-0.1-1.1-0.1-1.5-0.2c-0.2,0.5-0.5,1-0.7,1.5
				c0.4,0.4,0.8,0.7,1.2,1.1c0.5-0.3,1-0.6,1.4-0.9C-204.7-226.3-204.8-226.8-205-227.3z M-186.6-231.1c-0.4,0.4-0.8,0.8-1.1,1.2
				c0.3,0.4,0.6,1,0.8,1.4c0.5-0.1,1.1-0.2,1.5-0.3c0.1-0.6,0.2-1.1,0.3-1.6C-185.6-230.6-186.1-230.9-186.6-231.1z M-176.3-216.2
				c-0.4-0.3-0.9-0.7-1.3-1c-0.4,0.3-0.9,0.7-1.3,1c0.2,0.5,0.4,1,0.6,1.5c0.5,0,1.1,0,1.6,0C-176.6-215.1-176.5-215.6-176.3-216.2z
				 M-170.4-214.4c0.5,0,1.1,0.1,1.5,0.1c0.2-0.5,0.4-1.1,0.6-1.6c-0.4-0.3-0.9-0.6-1.3-0.9c-0.5,0.3-1,0.6-1.4,0.9
				C-170.8-215.4-170.5-214.8-170.4-214.4z M-171.3-222.1c0.5,0.1,1.1,0.3,1.5,0.4c0.3-0.5,0.6-1,0.9-1.4c-0.4-0.4-0.8-0.9-1.1-1.2
				c-0.5,0.2-1,0.5-1.4,0.7C-171.3-223.1-171.3-222.6-171.3-222.1z M-190.6-223.9c0.5-0.1,1-0.2,1.5-0.4c0.1-0.5,0.1-1.1,0.2-1.5
				c-0.5-0.3-1-0.5-1.5-0.7c-0.4,0.4-0.7,0.9-1.1,1.2C-191.2-224.8-190.9-224.3-190.6-223.9z M-187.9-209c0-0.5,0-1.1,0-1.6
				c-0.4-0.2-1-0.4-1.4-0.6c-0.3,0.4-0.7,0.9-1,1.3c0.3,0.5,0.6,0.9,0.9,1.4C-189-208.7-188.4-208.9-187.9-209z M-190.8-231.4
				c0.5-0.1,1.1-0.3,1.5-0.3c0.1-0.6,0.2-1.1,0.2-1.5c-0.5-0.3-1-0.6-1.5-0.8c-0.3,0.4-0.7,0.9-1.1,1.3
				C-191.4-232.4-191.1-231.9-190.8-231.4z M-166.4-210.9c0.5,0,1.1,0,1.6,0c0.2-0.5,0.4-1,0.6-1.4c-0.4-0.4-0.9-0.7-1.3-1.1
				c-0.4,0.3-0.9,0.6-1.4,0.9C-166.7-212-166.6-211.4-166.4-210.9z M-195.9-235.4c0.3,0.4,0.6,0.9,0.9,1.3c0.5-0.2,1.1-0.4,1.5-0.5
				c0-0.6,0.1-1.1,0.1-1.5c-0.6-0.2-1.1-0.5-1.5-0.6C-195.3-236.3-195.6-235.8-195.9-235.4z"/>
			<path class="st7" d="M-116.9-164.7c5.1-3.4,10.4-2.4,15.8-0.4c3.2,1.2,6.4,2.5,9.7,3.6c3.6,1.3,7.3,1.7,10.8,0.6
				c0.8,1.3,1.6,2.6,2.4,3.9c0.7,1.1,0.5,1.4-0.7,1.8c-3.6,1.1-7.1,0.4-10.6-0.7c-3.5-1.2-6.9-2.6-10.5-3.7
				c-3.7-1.2-7.5-1.6-11.3-0.1c-0.6,0.3-1.3,0.6-1.9,0.9c-0.9,0.6-1,1.3,0,1.9c0.6,0.3,1.4,0.5,2.1,0.7c0.8,0.2,1.7,0.3,2.6,0.6
				c0.7,0.2,1.3,0.7,1.3,1.6c-3.8,0.6-7.5,0.2-11.2-0.3c-6-0.7-12-1.9-18.1-1.4c-3.6,0.3-7.1,1.1-10.6,1.6c-5.1,0.8-10.1,0.7-15-1
				c-0.7-0.2-1.3-0.5-1.9-0.9c-2.8-1.7-3.4-4.1-2-6.7c2.8,0.7,5.5,1.6,8.2,2.1c4,0.7,8.1,0.4,12.2,0.1c5.5-0.4,11-0.8,16.5-1
				c4.3-0.1,8.6,0.5,12.7,2c0.2,0.1,0.5,0.1,1,0.3c-0.1-0.7-0.2-1.2-0.3-1.7c-0.4-2.1-1.7-3.2-3.9-3.8c-6.6-1.5-13.2-2-19.9-1.6
				c-3.3,0.2-6.6,0.6-9.9,1c-0.5,0-1,0-1.4,0c0-0.1-0.1-0.2-0.1-0.3c0.3-0.2,0.6-0.4,0.9-0.6c1-0.7,1.2-1.2,0.6-2.3
				c-1.7-3.1-4.4-4.8-7.7-5.7c-6.8-1.8-13.6-1.2-20.2,1.2c-6.9,2.5-12.7,6.7-18.5,10.9c-4.2,3.1-8.4,6.1-12.6,9.1
				c-0.2,0.1-0.4,0.3-0.7,0.4c0.2-2.2,0.5-4.4,0.7-6.5c0-0.2,0.3-0.5,0.5-0.7c6.1-5.2,12.2-10.3,19.1-14.3c6-3.4,12.3-5.9,19.2-6.5
				c5.1-0.5,10.1,0.2,14.9,2c0.4,0.2,0.9,0.3,1.6,0.6c-0.6-2-1.1-3.8-1.7-5.8c10.9,0.3,21.5,0.7,32.1,3.1c0.4-1.9-1.1-3.2-1.2-4.9
				c-8-1.3-15.9-2.7-23.8-4c-2.5-0.4-5.1-0.3-7.7-0.4c-0.8,0-1.3-0.1-1.5-1.1c-0.2-1.1-0.5-2.3-0.8-3.4c-0.1-0.3-0.4-0.6-0.7-0.6
				c-3.8-1.3-7.6-1.8-11.6-1.8c-8.7,0-16.5,2.8-23.8,7.3c-4.8,3-9.3,6.5-13.9,9.8c-0.2,0.1-0.4,0.3-0.7,0.5c0-2.3,0-4.4,0-6.6
				c0-0.2,0.3-0.5,0.5-0.7c6.7-6.2,14.2-11,23-13.7c6.7-2.1,13.6-2.7,20.6-1.7c1.5,0.2,2.9,0.4,4.3,0.8c0.4,0.1,0.9,0.5,1,0.9
				c0.4,1.2,0.6,2.4,0.9,3.5c10.9,1.6,21.7,3.2,32.7,4.8c-0.6-2.1-1.1-3.9-1.6-5.8c-0.8,0.1-1.6,0.1-2.4,0.2
				c-5.1,0.2-9.8-1.3-14.7-2.5c-4.1-1-8.2-1.8-12.3-2.7c-0.2-0.1-0.5-0.1-0.8-0.1c-1.8-0.1-1.8-0.1-2.1-1.9c-0.2-1.5-0.4-3.1-0.7-5
				c2.1,0.3,4.1,0.5,6.1,1c4.2,1.1,8.3,2.3,12.5,3.4c4.1,1.1,8.2,1.6,12.5,1.2c0.3-2.2-0.6-4.1-1.1-6.1c-2.5,0-5,0.3-7.4-0.1
				c-3-0.4-6-1.2-9-2.1c-4.4-1.3-8.7-2.9-13.3-3.4c-0.3,0-0.7-0.4-0.8-0.7c-0.2-0.9-0.3-1.7-0.4-2.6c-0.1-1.1-0.2-2.1-0.4-3.5
				c1.8,0.3,3.7,0.5,5.4,1.1c3.9,1.3,7.8,2.8,11.7,4.1c4,1.4,8.2,2,12.6,0.8c-0.4-2-0.8-4-1.2-6.1c-5.8,1.7-11.1,0.2-16.2-2.1
				c-3.5-1.5-6.9-3.2-10.7-3.9c-2.2-0.4-2.2-0.5-2.4-2.8c-0.1-1.2-0.2-2.4-0.3-3.9c2.1,0.5,4,0.8,5.8,1.5c3.2,1.2,6.2,2.7,9.4,4
				c2.8,1.2,5.8,2,8.9,1.5c0.9-0.1,1.9-0.3,2.8-0.7c1.9-0.6,1.9-0.7,1.7-2.7c-0.2-1.5-0.4-3-0.6-4.5c3.4-1,6.8-1,10,0.3
				c3.2,1.4,6.2,3.1,9.3,4.7c1.7,0.9,3.3,1.9,5,2.8c3.4,1.6,6.9,2.5,10.6,2c1-0.1,1.4,0.4,1.5,1.1c0.2,1.3,0.4,2.7,0.5,4.1
				c-2.7,0.7-5.3,0.7-7.8-0.1c-2.4-0.8-4.6-1.8-6.9-2.8c-3.5-1.7-6.8-3.6-10.3-5.2c-3.5-1.5-7.2-1.5-11-0.3c0.3,1.7,0.6,3.4,0.8,5
				c1.8-0.3,3.5-0.8,5.3-0.8c3.1-0.1,5.9,0.9,8.6,2.3c3.7,1.9,7.4,4,11.2,5.8c3.1,1.5,6.5,2.3,10,2c0.9-0.1,1.3,0.2,1.4,1
				c0.2,1.5,0.5,3,0.8,4.6c-1.9,0.5-3.6,0.3-5.4-0.1c-3.4-0.6-6.5-2.2-9.6-3.7c-3.3-1.6-6.6-3.3-10-4.6c-3.4-1.3-6.8-1.2-10,0.9
				c-0.7,0.4-1,0.9-0.8,1.7c0.3,1.2,0.5,2.5,0.8,3.9c3.2-2.1,6.5-2.3,9.8-1.4c1.8,0.5,3.5,1.2,5.3,1.9c4.1,1.8,8.2,3.8,12.3,5.5
				c2.5,1,5.1,1.6,7.8,1.6c0.3,0,0.8,0.3,0.9,0.6c0.4,1.5,0.7,3.1,1.1,5c-2-0.2-3.8,0-5.5-0.5c-3.2-1-6.3-2.3-9.5-3.5
				c-3.2-1.3-6.4-2.8-9.7-3.9c-3.5-1.2-7-0.9-10.2,1.3c-0.6,0.5-0.9,0.9-0.6,1.7c0.4,1.3,0.7,2.7,1,4.1c0.1,0,0.2-0.1,0.3-0.1
				c3.1-2.5,6.6-3,10.3-1.9c2.9,0.9,5.6,2.2,8.4,3.3c3.7,1.5,7.3,3.1,11,4.4c1.8,0.6,3.8,0.6,5.8,0.9c0.4,1.6,0.8,3.3,1.3,5.3
				c-1.8-0.1-3.5,0-5.1-0.3c-3.9-0.6-7.4-2.4-11.1-3.9c-2.7-1.1-5.5-2.3-8.3-3.1c-3.5-1-7-0.4-10.1,1.7c-0.5,0.4-0.8,0.7-0.5,1.4
				c0.5,1.4,0.8,2.9,1.2,4.1c1.4-0.7,2.7-1.5,4.2-1.9c2.7-0.8,5.5-0.4,8.1,0.6c4.1,1.4,8.2,3,12.2,4.6c3.4,1.3,6.8,2.3,10.5,2.3
				c0.2,0,0.7,0.2,0.7,0.4c0.5,1.6,1,3.2,1.5,4.9c-2.6,0.4-5.1,0.2-7.5-0.7c-4.2-1.5-8.2-3.3-12.4-4.9c-2.7-1.1-5.5-1.9-8.4-1.8
				c-2.5,0.1-4.5,1.1-6.3,2.7c-0.5,0.5-0.6,0.9-0.4,1.5c0.4,1.2,0.7,2.5,1,3.8c0.1,0,0.2-0.1,0.4-0.2c2.8-2.6,6.1-3.3,9.6-2.4
				c3.2,0.8,6.3,2,9.4,3.3c3.8,1.5,7.5,3.3,11.5,3.9c1.6,0.2,3.3,0.2,5,0.3c0.5,1.2,1.1,2.5,1.5,3.8c0.5,1.5,0.2,1.8-1.3,1.9
				c-3.1,0.1-6-0.7-8.8-1.8c-4.2-1.6-8.4-3.4-12.7-5c-2.1-0.8-4.4-1-6.7-0.6c-2.1,0.4-3.9,1.4-5.3,3c-0.3,0.4-0.3,1.1-0.2,1.7
				C-117.8-166.8-117.3-165.8-116.9-164.7z M-152.1-177.7c0.1,0.7,0.1,1.1,0.2,1.5c0.5,1.4,1.1,2.7,1.6,4.1c0.3,0.7,0.7,0.8,1.4,0.7
				c7.1-1.2,14.1-0.7,21.2,0.2c2.9,0.4,5.8,0.9,8.8,1.3c-0.5-1.4-0.9-2.7-1.4-4c-0.2-0.4-0.6-0.9-1-1c-8.8-1.8-17.6-3-26.6-2.8
				C-149.2-177.7-150.6-177.7-152.1-177.7z"/>
			<path class="st7" d="M-208.5-165.6c-0.5-4.9,1.4-8.6,5-11.3c2.4-1.9,5.1-3.4,7.8-5c4.7-2.7,9.3-5.3,14.4-7.2
				c7.9-2.9,15.8-3.4,23.8-1c0.5,0.1,1,0.7,1.3,1.2c0.3,0.5,0.4,1.1,0.6,1.7c0.3,1,0.5,2,0.7,3c-1.9-0.4-3.7-0.8-5.4-1.1
				c-6.5-1.2-12.9-0.4-19.2,1.7c-8,2.7-14.9,7.2-21.6,12.3c-2.1,1.6-4.1,3.2-6.2,4.8C-207.6-166.3-208-166-208.5-165.6z"/>
			<path class="st7" d="M-168.4-160.4c-0.7-1-1.5-1.9-2-2.9c-0.7-1.2-0.4-2.6,0.8-3.4c1.2-0.7,2.4-1.4,3.8-1.7
				c4.1-0.9,8.2-1.7,12.4-2.5c0.9-0.2,3.6,1.8,3.6,2.7c0,0.5-0.6,1.2-1.1,1.3c-1.8,0.6-3.6,1.1-5.4,1.4c-3,0.5-6,0.9-9,1.4
				c-1.6,0.3-2.5,1.4-2.7,3.1c0,0.2,0,0.4,0,0.5C-168.2-160.5-168.3-160.5-168.4-160.4z"/>
			<path class="st7" d="M-172.9-169.7c-0.5-1.2-0.8-2.2-1.3-3.3c5-1.4,9.8-2,14.9-1c-1.3,0.9-2.5,1-3.8,1.2c-1.7,0.2-3.3,0.4-5,0.6
				C-169.9-172-171.6-171.5-172.9-169.7z"/>
		</g>
		<path class="st7" d="M-107.9-159.8c0.3,1.3,0.5,2.4,0.7,3.6c0,0.1,0,0.2,0,0.2c-1.3-0.3-2.6-0.5-3.8-0.9c-0.6-0.2-1.6-0.6-1.7-1
			c-0.1-0.9,0.8-1.2,1.7-1.4C-110-159.6-109-159.7-107.9-159.8z"/>
	</g>
	<path class="st2" d="M293.8,164.7c-1.1-3.6-4.4-6.1-8.3-6.1c-1.3,0-2.5,0.3-3.6,0.8c-2.8-3.5-7.1-5.8-12-5.8c-8,0-14.6,6.2-15.3,14
		c-4.1,0.5-7.3,4-7.3,8.3c0,4.6,3.7,8.4,8.4,8.4h37.9c5.2,0,9.5-4.4,9.5-9.7C303.1,169.1,298.9,164.8,293.8,164.7z M293.6,181.2
		h-37.9c-3,0-5.4-2.4-5.4-5.4c0-2.7,2-5,4.7-5.3l2.4-0.3l0.2-2.4c0.5-6.3,5.9-11.3,12.3-11.3c3.8,0,7.3,1.7,9.7,4.7l1.5,1.8l2.1-1
		c0.8-0.3,1.5-0.5,2.3-0.5c2.5,0,4.7,1.6,5.4,4l0.6,2.1l2.2,0c3.5,0.1,6.3,3.1,6.3,6.7C300.1,178.2,297.2,181.2,293.6,181.2z"/>
	<g class="st8">
		<path class="st9" d="M351.2,248.9c0,1.2-1,2.3-2.3,2.3h-19.1c-1.2,0-2.3-1-2.3-2.3v-29.4c0-1.2,1-2.3,2.3-2.3h19.1
			c1.2,0,2.3,1,2.3,2.3V248.9z M350.2,221.7h-21.6v24.8h21.6V221.7z M333.8,248.3c-0.3,0-0.5,0.2-0.5,0.5c0,0.3,0.2,0.5,0.5,0.5
			c0.3,0,0.5-0.2,0.5-0.5C334.3,248.6,334,248.3,333.8,248.3z M339.4,248.3c-0.3,0-0.5,0.2-0.5,0.5c0,0.3,0.2,0.5,0.5,0.5
			c0.3,0,0.5-0.2,0.5-0.5C339.9,248.6,339.7,248.3,339.4,248.3z M345,248.3c-0.3,0-0.5,0.2-0.5,0.5c0,0.3,0.2,0.5,0.5,0.5
			c0.3,0,0.5-0.2,0.5-0.5C345.6,248.6,345.3,248.3,345,248.3z"/>
	</g>
	<g class="st8">
		<path class="st9" d="M256.9,193c-0.4-0.4-1-0.5-1.5-0.6c-0.9-0.2-4.5-0.3-5.4-0.3h-0.1c-1,0-4.5,0.1-5.4,0.3
			c-0.5,0.1-1,0.3-1.5,0.6c-0.5,0.4-0.8,1.1-0.8,1.9v25.3c0,1.7,1.4,2.2,2,2.3c0.6,0.1,2.2,0.5,5.7,0.5h0.1c3.6,0,5.1-0.3,5.7-0.5
			c0.6-0.1,2-0.6,2-2.3V195C257.7,194.1,257.4,193.5,256.9,193z M255.1,193.8c0.4,0,0.7,0.3,0.7,0.7c0,0.4-0.3,0.7-0.7,0.7
			c-0.4,0-0.7-0.3-0.7-0.7C254.4,194.1,254.7,193.8,255.1,193.8z M247.1,194.3h5.5c0.2,0,0.3,0.1,0.3,0.3c0,0.2-0.1,0.3-0.3,0.3
			h-5.5c-0.2,0-0.3-0.1-0.3-0.3C246.8,194.4,246.9,194.3,247.1,194.3z M251.2,221.4c-0.3,0.1-1,0.1-1.2,0.1c0,0-0.1,0-0.1,0
			c0,0-0.1,0-0.1,0c-0.3,0-0.9,0-1.2-0.1c-0.4-0.1-0.5-0.6-0.5-0.7c0-0.1,0-0.4,0.4-0.4h1.4h0.1h1.4c0.4,0,0.4,0.3,0.4,0.4
			C251.7,220.8,251.6,221.3,251.2,221.4z M255.7,218.8h-11.7v-22.4h11.7L255.7,218.8L255.7,218.8L255.7,218.8z"/>
	</g>
	<g class="st8">
		<g>
			<path class="st10" d="M328.9,192.9v0.5c0,0.2-0.2,0.5-0.5,0.5H323c-0.3,0-0.5-0.2-0.5-0.5v-0.5h-19.5v0.9c0,0,0,1.4,1.4,1.4H347
				c1.4,0,1.4-1.4,1.4-1.4v-0.9H328.9z"/>
			<path class="st10" d="M341.6,169.7h-31.7c-0.8,0-1.4,0.6-1.4,1.4v0.5v18.6c0,0.8,0.6,1.4,1.4,1.4h0.5h30.8h0.5
				c0.7,0,1.4-0.6,1.4-1.4v-18.6v-0.5C343,170.3,342.4,169.7,341.6,169.7z M341.1,189.7h-30.8v-18.1h30.8V189.7z"/>
		</g>
	</g>
	<g class="st11">
		<path class="st9" d="M320,234.6c0,1.8,0,3.6,0,5.3c-0.1,0.2-0.2,0.4-0.2,0.7c-1.7,10.1-7.5,16.8-17.3,19.9c-1.3,0.4-2.7,0.7-4.1,1
			c-1.8,0-3.6,0-5.3,0c-0.2-0.1-0.4-0.2-0.7-0.2c-10.1-1.7-16.8-7.5-19.9-17.3c-0.4-1.3-0.6-2.7-1-4.1c0-1.8,0-3.6,0-5.3
			c0.1-0.2,0.2-0.4,0.2-0.7c1.6-9.7,7.1-16.3,16.3-19.7c1.6-0.6,3.3-0.8,5-1.3c1.8,0,3.6,0,5.3,0c0.2,0.1,0.4,0.2,0.7,0.2
			c10.1,1.7,16.8,7.5,19.9,17.3C319.4,231.8,319.6,233.2,320,234.6z M282.9,236c0.6-3.2,1.1-6.3,1.7-9.6c-2.5,0-4.9,0-7.4,0
			c-0.2,0-0.5,0.2-0.6,0.4c-1.6,2.8-2.4,5.9-2.6,9.2C277,236,280,236,282.9,236z M308.6,235.9c3,0,6,0,9,0c-0.2-3.2-1-6.1-2.5-8.9
			c-0.2-0.3-0.5-0.7-0.7-0.7c-2.5,0-5,0-7.4,0C307.5,229.7,308,232.8,308.6,235.9z M284.5,248.1c-0.6-3.3-1.1-6.4-1.6-9.5
			c-2.9,0-5.9,0-9,0c0.2,3.2,1,6.2,2.5,9c0.2,0.3,0.6,0.6,0.9,0.6C279.7,248.1,282.1,248.1,284.5,248.1z M306.9,248.1
			c2.4,0,4.8,0,7.2,0c0.3,0,0.7-0.3,0.8-0.5c1.5-2.8,2.4-5.8,2.6-9c-3.1,0-6.1,0-9,0C308,241.7,307.5,244.8,306.9,248.1z
			 M294.5,226.4c-2.3,0-4.5,0-6.7,0c-0.2,0-0.5,0.3-0.6,0.5c-1,2.9-1.6,5.9-1.7,9.1c3.1,0,6,0,8.9,0
			C294.5,232.8,294.5,229.7,294.5,226.4z M297,226.4c0,3.3,0,6.4,0,9.6c3,0,5.9,0,8.9,0c-0.1-3.1-0.6-6.1-1.7-9
			c-0.1-0.2-0.4-0.5-0.7-0.5C301.4,226.4,299.2,226.4,297,226.4z M285.2,238.5c0.7,3.1,1.3,6,2,8.9c0.1,0.3,0.4,0.6,0.7,0.6
			c2.2,0.1,4.4,0,6.6,0c0-3.3,0-6.4,0-9.6C291.4,238.5,288.6,238.5,285.2,238.5z M306.2,238.5c-3.4,0-6.3,0-9.2,0c0,3.2,0,6.3,0,9.6
			c2.2,0,4.4,0,6.5,0c0.3,0,0.7-0.4,0.8-0.7C305,244.5,305.6,241.6,306.2,238.5z M290.1,216.1c-4.6,1.2-8.5,3.8-11.7,7.8
			c2.5,0,4.7,0,6.9,0c0.2,0,0.5-0.2,0.6-0.4C287.3,221.1,288.7,218.6,290.1,216.1z M313.1,223.9c-3.3-4-7.1-6.6-11.8-7.8
			c1.4,2.5,2.8,4.9,4.2,7.3c0.1,0.2,0.5,0.5,0.8,0.5C308.5,224,310.6,223.9,313.1,223.9z M278.3,250.5c3.3,4.1,7.1,6.6,11.8,7.8
			c-1.4-2.5-2.8-4.9-4.2-7.3c-0.1-0.2-0.5-0.5-0.8-0.5C282.9,250.5,280.8,250.5,278.3,250.5z M313.1,250.5c-2.5,0-4.7,0-6.9,0
			c-0.2,0-0.5,0.2-0.6,0.4c-1.4,2.5-2.8,4.9-4.2,7.4C306,257.2,309.8,254.6,313.1,250.5z M294.4,223.9c0-2.8,0-5.5,0-8.2
			c-2.2,1.6-5.3,6-5.9,8.2C290.5,223.9,292.4,223.9,294.4,223.9z M303.1,223.9c-1.5-3.2-3.4-6-6.1-8.4c0,2.9,0,5.6,0,8.4
			C299,223.9,300.9,223.9,303.1,223.9z M288.3,250.6c1.5,3.2,3.4,6,6.1,8.4c0-2.9,0-5.6,0-8.4C292.4,250.6,290.5,250.6,288.3,250.6z
			 M297,259c2.7-2.5,4.6-5.2,6.1-8.4c-2.1,0-4.1,0-6.1,0C297,253.4,297,256,297,259z"/>
	</g>
	<g class="st11">
		<path class="st9" d="M354.5,187.1c-1.7-1.7-3.5-3.5-5.3-5.3c3.5-3.5,7.1-7.1,10.6-10.6c1.7,1.7,3.5,3.5,5.3,5.3
			C361.7,179.9,358.1,183.5,354.5,187.1z"/>
		<path class="st9" d="M367.3,190c-0.4,0-0.8,0-1.2,0c0-1.5,0-2.9,0-4.4c-0.8,0-1.5-0.1-2.1,0c-0.9,0.1-1.6-0.1-2.2-0.9
			c-0.3-0.4-0.6-0.5-1.2-0.3c-0.6,0.2-1.2,0-1.9,0c1.3-1.3,2.4-2.4,3.6-3.6c0,0.6,0.1,1.2,0,1.8c-0.1,0.8,0.4,1.6,1.2,1.7
			c0.1,0,0.3,0,0.5,0c0.6,0,1.3,0,2,0c0-1.5,0-2.9,0-4.4c0.5,0,0.8,0,1.3,0C367.3,183.2,367.3,186.6,367.3,190z"/>
		<path class="st9" d="M348.4,185c0.4-0.5,0.9-1,1.3-1.4c1.1,1.1,2.1,2.1,3.1,3.1c-0.4,0.5-0.9,1-1.3,1.4
			C350.4,187,349.4,186,348.4,185z"/>
	</g>
	<path class="st3" d="M294.3,142.3c0,2.9,0,5.9,0,8.8c-0.3,0.1-0.5,0.4-0.8,0.4c-4.7,0-9.4,0-14.1,0c-0.3,0-0.5-0.2-0.8-0.4
		c0-2.9,0-5.9,0-8.8c0.3-0.1,0.5-0.4,0.8-0.4c4.7,0,9.4,0,14.1,0C293.8,142,294.1,142.2,294.3,142.3z M280.9,147.4
		c2.4,0,4.8,0,7.2,0c0,1.1-0.6,1.8-1.5,2.5c0.7,0,1.2,0,1.7,0c0,0.2,0,0.3-0.1,0.5c0.3,0,0.6,0,0.8,0c0-2.4,0-4.8,0-7.3
		c-3.1,0-6.2,0-9.3,0c0,2.4,0,4.8,0,7.3c0.3,0,0.5,0,0.8,0c0-0.2-0.1-0.3-0.1-0.5c0.6,0,1.1,0,1.7,0
		C281.5,149.2,280.8,148.5,280.9,147.4z M292.6,149.2c0-0.6-0.4-1-0.9-1c-0.5,0-1,0.4-1,0.9c0,0.5,0.5,1,1,1
		C292.2,150.1,292.6,149.7,292.6,149.2z M292.4,144.9c0.9,0.2,1,0.1,0.8-0.8c-0.3,0-0.5,0-0.8,0
		C292.4,144.4,292.4,144.6,292.4,144.9z M292.4,145.2c0,0.3,0,0.6,0,0.8c0.3,0,0.6,0,0.8,0c0-0.3,0-0.6,0-0.9c-0.2,0-0.4,0-0.6,0
		C292.6,145.2,292.5,145.2,292.4,145.2z M292.4,147.1c0.9,0.2,1,0.1,0.8-0.8c-0.3,0-0.5,0-0.8,0
		C292.4,146.6,292.4,146.8,292.4,147.1z M291,144.1c-0.3,0-0.6,0-0.9,0c0,0.3,0,0.5,0,0.8c0.3,0,0.6,0,0.9,0
		C291,144.6,291,144.4,291,144.1z M291.3,144.9c0.3,0,0.5,0,0.8,0c0-0.3,0-0.6,0-0.8c-0.3,0-0.5,0-0.8,0
		C291.3,144.4,291.3,144.6,291.3,144.9z M291,145.2c-0.3,0-0.6,0-0.8,0c-0.2,0.9,0,1,0.8,0.8C291,145.7,291,145.5,291,145.2z
		 M291.3,146c0.3,0,0.5,0,0.8,0c0-0.3,0-0.6,0-0.8c-0.3,0-0.5,0-0.8,0C291.3,145.5,291.3,145.7,291.3,146z M290.2,147.1
		c0.3,0,0.6,0,0.8,0c0-0.3,0-0.6,0-0.8c-0.3,0-0.6,0-0.8,0C290.2,146.6,290.2,146.8,290.2,147.1z M291.3,147.1c0.3,0,0.6,0,0.8,0
		c0-0.3,0-0.6,0-0.8c-0.3,0-0.5,0-0.8,0C291.3,146.6,291.3,146.8,291.3,147.1z"/>
	<path class="st3" d="M323,164.5c0,0.2,0.1,0.3,0.2,0.4c0.1,0.1,0.3,0.2,0.4,0.2h4.3c0.2,0,0.3-0.1,0.4-0.2c0.1-0.1,0.2-0.3,0.2-0.4
		v-1.1c0.1,0,0.2-0.1,0.3-0.2c0.1-0.1,0.1-0.2,0.1-0.4v-2h-6.4v2c0,0.1,0,0.3,0.1,0.4s0.2,0.2,0.3,0.2V164.5 M332.5,152.2
		c0.4-0.9,0.6-1.8,0.6-2.8c0-1-0.2-1.9-0.6-2.8c-0.4-0.9-0.9-1.6-1.6-2.3c-0.7-0.7-1.5-1.2-2.4-1.5c-0.9-0.4-1.9-0.6-2.9-0.6
		c-1,0-2,0.2-2.9,0.6c-0.9,0.4-1.7,0.9-2.3,1.5c-0.7,0.7-1.2,1.4-1.6,2.3c-0.4,0.9-0.6,1.8-0.6,2.8c0,1,0.2,1.9,0.6,2.8
		c0.4,0.9,0.9,1.6,1.6,2.3c0.9,0.9,1.5,1.5,1.9,2c0.2,0.2,0.3,0.4,0.4,0.7c0.1,0.2,0.1,0.3,0.1,0.5c0,0.1,0,0.4,0,1.1h5.6
		c0-0.7,0-1,0-1.1c0-0.3,0.2-0.7,0.5-1.1c0.4-0.5,1-1.2,1.9-2C331.6,153.8,332.1,153.1,332.5,152.2z"/>
	<g class="st11">
		<path class="st9" d="M295.4,191.5c0,0.2-0.1,0.5-0.1,0.7c-0.1,0.9-0.3,1.8-0.4,2.7c-0.1,0.7-0.2,1.4-0.3,2.1
			c-0.1,0.4-0.4,0.7-0.8,0.7c-0.1,0-0.1,0-0.2,0c-2.9,0-5.8,0-8.7,0c-0.1,0-0.1,0-0.2,0c0,0.3,0.1,0.5,0.1,0.8c0.1,0,0.1,0,0.2,0
			c2.6,0,5.2,0,7.8,0c0.2,0,0.3,0,0.5,0.1c0.3,0.1,0.5,0.5,0.4,0.9c-0.1,0.4-0.4,0.6-0.8,0.6c-0.9,0-1.8,0-2.7,0c-2,0-4,0-6,0
			c-0.6,0-0.9-0.3-1-0.9c-0.2-1.5-0.5-3.1-0.8-4.6c-0.2-1.3-0.4-2.6-0.6-3.9c0-0.1,0-0.1,0-0.2c-0.3,0-0.6,0-0.9,0
			c-0.5,0-0.9-0.1-1-0.6c0-0.1,0-0.2,0-0.3c0,0,0-0.1,0-0.1c0.1-0.3,0.4-0.5,0.7-0.6c0.6,0,1.3,0,1.9,0c0.4,0,0.7,0.3,0.8,0.7
			c0,0.3,0.1,0.6,0.2,0.9c0.1,0,0.1,0,0.2,0c3.6,0,7.1,0,10.7,0c0.1,0,0.2,0,0.3,0c0.3,0.1,0.5,0.3,0.6,0.6
			C295.4,191.2,295.4,191.4,295.4,191.5z M290.6,193.7c0.9,0,1.9,0,2.8,0c0.1-0.5,0.1-1.1,0.2-1.6c-1,0-2,0-3.1,0
			C290.6,192.6,290.6,193.1,290.6,193.7z M284.1,193.7c0.9,0,1.7,0,2.5,0c0-0.5,0-1.1,0-1.6c-0.9,0-1.8,0-2.8,0
			C283.9,192.6,284,193.2,284.1,193.7z M290.6,196.1c0.8,0,1.7,0,2.5,0c0.1-0.5,0.1-1,0.2-1.6c-0.9,0-1.8,0-2.7,0
			C290.6,195,290.6,195.5,290.6,196.1z M287.4,192.1c0,0.5,0,1.1,0,1.6c0.8,0,1.6,0,2.4,0c0-0.5,0-1.1,0-1.6
			C289,192.1,288.2,192.1,287.4,192.1z M289.8,194.5c-0.8,0-1.6,0-2.4,0c0,0.5,0,1.1,0,1.6c0.8,0,1.6,0,2.4,0
			C289.8,195.5,289.8,195,289.8,194.5z M284.2,194.5c0.1,0.5,0.2,1.1,0.3,1.6c0.7,0,1.4,0,2.1,0c0-0.5,0-1.1,0-1.6
			C285.8,194.5,285,194.5,284.2,194.5z"/>
		<path class="st9" d="M292.6,203.3c-0.7,0-1.2-0.5-1.2-1.2c0-0.7,0.6-1.2,1.2-1.2c0.7,0,1.2,0.6,1.2,1.2
			C293.8,202.7,293.2,203.3,292.6,203.3z"/>
		<path class="st9" d="M285.4,203.3c-0.7,0-1.2-0.5-1.2-1.2c0-0.7,0.5-1.2,1.2-1.2c0.7,0,1.2,0.5,1.2,1.2
			C286.6,202.7,286,203.3,285.4,203.3z"/>
	</g>
	<path class="st2" d="M358.1,192.6c0.2,0,0.3,0.2,0.4,0.3c0.2,0.3,0.4,0.6,0.5,1c0,0.1,0,0.2,0,0.4c0,0.4,0,0.7,0,1.1
		c0,0.3,0,0.5,0,0.8c0,0.4,0,0.9,0,1.3c0,0.1,0,0.2,0.1,0.2c0.8,0.6,1.6,1.3,2.5,1.9c0.7,0.5,1.3,1,2,1.6c0.5,0.4,1.1,0.9,1.6,1.3
		c0.1,0,0.1,0.1,0.1,0.2c0,0.4,0,0.9,0,1.3c0,0,0,0,0,0c-2.1-0.8-4.2-1.6-6.3-2.4c0,0,0,0,0,0c0,0.2,0,0.3,0,0.5c0,0.3,0,0.7,0,1
		c0,0.2,0,0.4,0,0.6c0,0.2,0,0.3-0.1,0.5c0,0,0,0.1,0,0.1c0,0,0,0.1-0.1,0.1c0,0,0.1,0.1,0.1,0.1c0.7,0.4,1.3,0.9,2,1.3
		c0.1,0.1,0.1,0.1,0.1,0.2c0,0.3,0,0.7,0,1c0,0,0,0,0,0c-0.1,0-0.2-0.1-0.3-0.1c-0.9-0.3-1.7-0.7-2.6-1c-0.1,0-0.2,0-0.3,0
		c-0.9,0.4-1.8,0.7-2.7,1.1c-0.1,0-0.1,0-0.2,0.1c0,0,0,0,0,0c0-0.3,0-0.5,0-0.8c0-0.1,0-0.2,0-0.3c0,0,0-0.1,0.1-0.1
		c0.1,0,0.1-0.1,0.2-0.1c0.6-0.4,1.2-0.8,1.9-1.3c0,0,0.1-0.1,0.1-0.1c0-0.1-0.1-0.2-0.1-0.3c-0.1-0.2-0.1-0.4-0.1-0.6
		c0-0.7,0-1.3,0-2c0,0,0,0,0,0c0,0-0.1,0-0.1,0.1c-1.6,0.6-3.2,1.2-4.8,1.8c-0.4,0.2-0.9,0.3-1.3,0.5c0-0.5,0-0.9,0-1.4
		c0-0.1,0-0.1,0.1-0.2c0.2-0.1,0.4-0.3,0.6-0.4c0.7-0.6,1.5-1.1,2.2-1.7c0.8-0.6,1.6-1.3,2.4-1.9c0.3-0.2,0.6-0.5,0.9-0.7
		c0.1-0.1,0.1-0.1,0.1-0.2c0-0.1,0-0.2,0-0.3c0-0.3,0-0.7,0-1c0-0.7,0-1.3,0-2c0-0.1,0-0.2,0-0.3c0.1-0.4,0.2-0.7,0.4-1
		c0.1-0.1,0.2-0.3,0.4-0.3C358,192.6,358.1,192.6,358.1,192.6z"/>
	<g class="st8">
		<path class="st10" d="M256.6,228.1c3,0,6.1,0,9.1,0c0,0,0,0,0,0c0.5,0.1,0.8,0.6,0.8,1.1c0,3.3,0,6.7,0,10c0,0.3,0,0.6,0,0.9
			c0,0.3-0.1,0.5-0.4,0.6c-0.1,0.1-0.3,0.2-0.4,0.2c-3,0-6.1,0-9.1,0c0,0,0,0,0,0c-0.5-0.2-0.8-0.6-0.8-1c0-3.6,0-7.2,0-10.8
			c0-0.3,0.1-0.5,0.3-0.7C256.2,228.3,256.4,228.2,256.6,228.1z M261.2,237.8c1.8,0,3.1-1.4,3.2-3c0.1-2-1.5-3.3-3-3.4
			c-2-0.1-3.3,1.5-3.4,3C257.9,236.3,259.5,237.8,261.2,237.8z M262.8,229.7c0,0.3,0.2,0.5,0.5,0.5c0.3,0,0.5-0.2,0.5-0.5
			c0-0.3-0.2-0.5-0.5-0.5C263,229.2,262.8,229.4,262.8,229.7z M264.4,229.7c0,0.4,0.2,0.5,0.5,0.5c0.3,0,0.5-0.2,0.5-0.5
			c0-0.4-0.2-0.5-0.5-0.5C264.6,229.2,264.4,229.4,264.4,229.7z"/>
		<path class="st10" d="M261.2,237.3c-0.6,0-1.2-0.2-1.7-0.6c-0.5-0.4-0.8-0.9-1-1.6c0-0.1,0-0.3-0.1-0.4c0-0.1,0-0.1,0.1-0.2
			c0.2-0.1,0.5-0.3,0.7-0.3c0.3-0.1,0.5,0,0.7,0.1c0.3,0.1,0.6,0.2,0.8,0.3c0.3,0.1,0.6,0,0.8-0.1c0.3-0.1,0.5-0.2,0.8-0.3
			c0.4-0.1,0.7,0,1.1,0.2c0,0,0.1,0.1,0.1,0.1c0.2,0.1,0.2,0.2,0.2,0.4c0,0.2-0.1,0.5-0.2,0.7c-0.1,0.3-0.3,0.6-0.5,0.8
			c-0.2,0.2-0.4,0.4-0.7,0.6c-0.3,0.2-0.6,0.3-1,0.3C261.4,237.3,261.3,237.3,261.2,237.3z"/>
	</g>
	<path class="st12" d="M325.9,134.8l-5.8-3.1l-3-1.6c0,0-0.2-0.1-0.6,0c-0.3,0.2-0.2,0.6-0.2,0.6s0.5,1.8,1,3.8
		c0.5,2.1,1.1,4.3,1.2,4.7c0.2,0.6,0.8,0.1,0.8,0.1l1.5-2.6l2.3,2.8c0,0,0.6,0.4,1.2-0.1c0.6-0.5,0.2-0.9,0.2-0.9l-2.1-2.6
		c0,0,2.5-0.2,3.2-0.3C326.3,135.3,325.9,134.8,325.9,134.8z"/>
	<path class="st2" d="M349.5,168.3c-0.3,0-0.6-0.1-0.8-0.4l-3.2-3.2c-1.1,0.7-2.4,1.1-3.7,1.1c-3.6,0-6.5-2.9-6.5-6.5
		c0-3.6,2.9-6.5,6.5-6.5c3.6,0,6.5,2.9,6.5,6.5c0,1.3-0.4,2.6-1.1,3.7l3.2,3.2c0.2,0.2,0.3,0.5,0.3,0.8
		C350.6,167.8,350.1,168.3,349.5,168.3z M341.8,155.3c-2.3,0-4.1,1.9-4.1,4.1c0,2.3,1.9,4.1,4.1,4.1c2.3,0,4.1-1.9,4.1-4.1
		C345.9,157.2,344.1,155.3,341.8,155.3z"/>
	<g class="st11">
		<path class="st9" d="M267.9,223.3c0.1-1.8,0-3.6,0-5.5c-1,0-1.8-0.4-2.6-1c-0.9-0.8-1.5-1.8-1.5-3.1c0-1,0-2,0-3
			c3.6,0,7.1,0,10.6,0c0,1.4,0.1,2.8,0,4.1c-0.2,1.9-1.3,2.7-3.4,3c0,0.2,0,0.3,0,0.5c0,1.5,0,2.9,0,4.4
			C271,225.4,267.9,224.2,267.9,223.3z"/>
		<path class="st9" d="M272.6,204.1c0.4,0.3,0.5,0.6,0.5,1.1c0,1,0,1.9,0,2.9c0.8,0,1.7,0,2.5,0c0,0.7,0,1.4,0,2
			c-4.2,0-8.4,0-12.6,0c0-0.7,0-1.3,0-2c0.8,0,1.6,0,2.5,0c0-0.3,0-0.6,0-0.8c0-0.7,0-1.4,0-2.1c0-0.5,0.1-0.9,0.4-1.2
			c0.2,0,0.4,0,0.7,0c0.4,0.3,0.5,0.7,0.5,1.1c0,1,0,1.9,0,2.9c1.5,0,3,0,4.5,0c0-1,0-2,0-3c0-0.4,0.1-0.8,0.5-1
			C272.2,204.1,272.4,204.1,272.6,204.1z"/>
	</g>
	<g class="st8">
		<path class="st9" d="M307.5,166c-5,0-9-3.9-9-8.8c0-4.8,4.1-8.8,9-8.8c5,0,9,3.9,9,8.8C316.5,162.1,312.5,166,307.5,166z
			 M307.5,149.9c-4.2,0-7.6,3.3-7.6,7.3c0,4,3.4,7.3,7.6,7.3c4.2,0,7.6-3.3,7.6-7.3C315.1,153.2,311.7,149.9,307.5,149.9z"/>
		<path class="st9" d="M307.5,161.9c-2.7,0-4.8-2.1-4.8-4.7c0-2.6,2.2-4.7,4.8-4.7c2.7,0,4.8,2.1,4.8,4.7
			C312.3,159.8,310.2,161.9,307.5,161.9z M307.5,152.9c-2.5,0-4.5,1.9-4.5,4.3c0,2.4,2,4.3,4.5,4.3c2.5,0,4.5-1.9,4.5-4.3
			C312,154.8,310,152.9,307.5,152.9z"/>
		<path class="st9" d="M307.5,154.8c-0.3,0-0.5-0.2-0.5-0.5V151c0-0.3,0.2-0.5,0.5-0.5c0.3,0,0.5,0.2,0.5,0.5v3.3
			C308,154.6,307.8,154.8,307.5,154.8z"/>
		<path class="st9" d="M307.5,163.8c-0.3,0-0.5-0.2-0.5-0.5V160c0-0.3,0.2-0.5,0.5-0.5c0.3,0,0.5,0.2,0.5,0.5v3.3
			C308,163.6,307.8,163.8,307.5,163.8z"/>
		<path class="st9" d="M313.8,157.7h-3.4c-0.3,0-0.5-0.2-0.5-0.5c0-0.3,0.2-0.5,0.5-0.5h3.4c0.3,0,0.5,0.2,0.5,0.5
			C314.3,157.4,314.1,157.7,313.8,157.7z"/>
		<path class="st9" d="M304.5,157.7h-3.4c-0.3,0-0.5-0.2-0.5-0.5c0-0.3,0.2-0.5,0.5-0.5h3.4c0.3,0,0.5,0.2,0.5,0.5
			C305,157.4,304.8,157.7,304.5,157.7z"/>
	</g>
	<g class="st8">
		<path class="st9" d="M306.3,208.4c-2.1-0.1-3.7-1.2-4.7-3.2c-0.4-0.8-0.6-1.6-0.5-2.4c0.1-1.4,0.6-2.7,1.7-3.7
			c0.1-0.1,0.2-0.1,0.2-0.2c0.2-0.1,0.3-0.1,0.4,0.1c0.3,0.6,0.6,1.1,0.8,1.7c1.2,2.4,2.4,4.7,3.6,7.1c0.1,0.3,0.1,0.4-0.2,0.4
			C307.3,208.4,306.9,208.4,306.3,208.4z"/>
		<path class="st9" d="M302.3,207c0.3,0.3,0.6,0.5,0.9,0.7c0.6,0.4,1.2,0.7,1.9,0.9c0.1,0,0.1,0.1,0.2,0.1c0.6,0.5,0.9,1.2,1,2
			c0,0.2-0.1,0.3-0.3,0.3c-1.8,0-3.6,0-5.5,0c-0.2,0-0.3-0.1-0.3-0.4c0.1-0.9,0.6-1.7,1.4-2.2c0.1-0.1,0.1-0.1,0.2-0.2
			C301.9,207.8,302.1,207.4,302.3,207z"/>
		<path class="st9" d="M305.7,202.6c0.4-0.2,0.8-0.3,1.3-0.4c0.1,0,0.2-0.1,0.2-0.2c0.1-0.4,0.6-0.7,1-0.6c0.4,0.1,0.7,0.5,0.7,0.9
			c0,0.4-0.4,0.8-0.9,0.8c-0.1,0-0.2,0-0.3,0c-0.1,0-0.2,0-0.2,0c-0.4,0.2-0.7,0.5-1.1,0.7c0,0,0,0,0,0
			C306.2,203.5,305.9,203.1,305.7,202.6z"/>
	</g>
	<path class="st3" d="M312.9,137.8c0,0.2,0,0.4,0,0.5c-0.2,0.4-0.1,1.1-0.9,1c0.6,0.9,0.8,1.8,0.3,2.6c-0.4,0.6-0.5,1.2-0.5,1.9
		c0,0.4-0.1,0.7-0.5,0.7c-0.6,0-1.3,0.3-1.7-0.3c0-0.1,0-0.2,0-0.3c0-0.1,0-0.3,0-0.4c-2.3,0-4.6,0-6.8,0c-0.1,1-0.1,1-1.1,1
		c-0.1,0-0.2,0-0.3,0c-0.8,0-0.9-0.2-0.9-0.9c0-0.4,0.1-0.8-0.1-1c-0.8-1-0.8-2.1-0.1-3.2c-0.6,0.1-0.7-0.3-0.8-0.7
		c0-0.1-0.1-0.2-0.1-0.2c0-0.2,0-0.4,0-0.5c0.3-0.1,0.7-0.2,1-0.2c0.5,0,0.8-0.1,1-0.6c0.4-1.1,1.1-1.7,2.2-1.9
		c1.3-0.3,2.6-0.4,3.9-0.3c1.7,0.1,3.3,0.6,3.8,2.5c0,0.1,0.3,0.2,0.5,0.3C312,137.7,312.4,137.8,312.9,137.8z M310.2,138.2
		c-0.3-1.1-0.8-1.9-2-2.1c-1.4-0.3-2.8-0.3-4.2,0c-1.4,0.3-2,0.9-2.1,2.1C304.6,138.2,307.4,138.2,310.2,138.2z M310.9,141
		c0-0.5-0.5-1-1-1.1c-0.5,0-1,0.4-1,1c0,0.6,0.4,1,1,1.1C310.4,142,310.9,141.6,310.9,141z M303.1,141c0-0.6-0.4-1-1-1
		c-0.5,0-1,0.5-1,1c0,0.5,0.5,1,1,1C302.6,142,303.1,141.6,303.1,141z"/>
	<g class="st11">
		<path class="st9" d="M345.5,205.2c0,4.1-3.3,7.4-7.4,7.4c-4.1,0-7.4-3.3-7.5-7.4c0-4.1,3.3-7.4,7.4-7.4
			C342.1,197.8,345.5,201.1,345.5,205.2z M338.1,201.4c-2.1,0-3.8,1.7-3.8,3.9c0,2.1,1.7,3.8,3.9,3.7c2.1,0,3.7-1.8,3.7-3.9
			C341.8,203.1,340.1,201.4,338.1,201.4z"/>
		<path class="st9" d="M338.1,204.5c0,0.4,0,0.8,0,1.3c0,0.1,0,0.2,0.1,0.2c0.4,0.4,0.4,1.1,0.1,1.5c-0.3,0.5-0.9,0.7-1.5,0.5
			c-0.5-0.2-0.9-0.7-0.9-1.3c0-0.3,0.1-0.5,0.3-0.7c0.1-0.1,0.1-0.2,0.1-0.2c0-0.8,0-1.7,0-2.5c0-0.4,0.2-0.6,0.5-0.8
			c0.3-0.1,0.6-0.1,0.9,0.1c0.2,0.2,0.3,0.4,0.3,0.6C338.1,203.6,338.1,204,338.1,204.5C338.1,204.5,338.1,204.5,338.1,204.5z
			 M337.6,203.5c0-0.1,0-0.2,0-0.3c0-0.3-0.2-0.5-0.4-0.5c-0.2,0-0.4,0.2-0.4,0.5c0,0,0,0.1,0,0.1c0,0.8,0,1.7,0,2.5
			c0,0.1,0,0.2-0.1,0.2c-0.2,0.1-0.3,0.3-0.3,0.5c0.6,0,1.1,0,1.7,0c0-0.2-0.1-0.4-0.3-0.5c-0.1-0.1-0.2-0.2-0.2-0.4c0,0,0,0,0,0
			c0-0.1,0-0.2-0.1-0.2c-0.1,0-0.3,0-0.4,0c0-0.1,0-0.1,0-0.2c0.2,0,0.3,0,0.5,0c0-0.1,0-0.3,0-0.4c-0.2,0-0.3,0-0.5,0
			c0-0.1,0-0.1,0-0.2c0.2,0,0.3,0,0.5,0c0-0.1,0-0.3,0-0.4c-0.2,0-0.3,0-0.5,0c0-0.1,0-0.1,0-0.2c0.2,0,0.3,0,0.5,0
			c0-0.2,0-0.3,0-0.4c-0.2,0-0.3,0-0.5,0c0-0.1,0-0.1,0-0.2C337.3,203.5,337.5,203.5,337.6,203.5z"/>
		<path class="st9" d="M340.9,204.9c-0.7,0-1.3,0-2,0c0.3-0.3,0.7-0.7,1-1C340.3,204.2,340.6,204.5,340.9,204.9z"/>
		<path class="st9" d="M339,205.5c0.6,0,1.3,0,2,0c-0.3,0.3-0.7,0.7-1,1C339.6,206.2,339.3,205.9,339,205.5z"/>
	</g>
	<path class="st12" d="M714.5,178.2v1.4c0,0.8-0.6,1.4-1.4,1.4h-17.4c-0.8,0-1.4-0.6-1.4-1.4v-1.4h-62.2v2.9c0,0,0,4.3,4.3,4.3h136
		c4.3,0,4.3-4.3,4.3-4.3v-2.9H714.5z"/>
	<path class="st12" d="M755,104.5H653.8c-2.4,0-4.3,1.9-4.3,4.3v1.4v59.3c0,2.4,1.9,4.3,4.3,4.3h1.4h98.4h1.4c2.4,0,4.3-1.9,4.3-4.3
		v-59.3v-1.4C759.4,106.4,757.4,104.5,755,104.5z M753.6,168.1h-98.4v-57.9h98.4V168.1z"/>
	<g class="st8">
		<path class="st10" d="M315,210.2c0-1.2,0-2.3,0-3.5c0-1.3,0.8-2.1,2.1-2.1c1.8,0,3.5,0,5.3,0c1.2,0,2,0.7,2.1,1.8
			c0,0.2-0.1,0.5-0.2,0.6c-0.3,0.4-0.3,1.9,0.1,2.3c0.3,0.3,0.3,0.7,0,1c-0.1,0.2-0.2,0.4-0.2,0.6c0,0.6,0,1.2,0,1.8
			c0,0.3,0.2,0.6,0.3,0.8c0,0.1,0.1,0.3,0.1,0.4c-0.1,1-0.9,1.7-2,1.8c-1.9,0-3.7,0-5.6,0c-1.2,0-2-0.9-2-2.1
			C315,212.5,315,211.3,315,210.2z M316.1,214.4c2.5,0,4.9,0,7.3,0c0-2.8,0-5.6,0-8.4c-2.5,0-4.9,0-7.3,0
			C316.1,208.8,316.1,211.6,316.1,214.4z"/>
		<path class="st10" d="M322.9,204.3c-2.1,0-4.2,0-6.2,0c0.1-0.8,0.2-1.5,0.3-2.3c0.1-0.7,0.2-0.8,0.9-1c1.3-0.3,2.7-0.2,4,0
			c0.6,0.1,0.8,0.4,0.8,0.9C322.7,202.7,322.8,203.5,322.9,204.3z"/>
		<path class="st10" d="M322.9,216.1c-0.1,0.7-0.2,1.4-0.3,2.1c-0.1,0.9-0.2,1.1-1.1,1.2c-1.3,0.2-2.6,0.2-3.9-0.1
			c-0.6-0.1-0.8-0.4-0.8-0.9c-0.1-0.8-0.2-1.6-0.3-2.4C318.8,216.1,320.9,216.1,322.9,216.1z"/>
		<path class="st10" d="M324.5,209.1c0-0.5,0-1,0-1.5c0-0.1,0.2-0.3,0.3-0.3c0.2,0,0.4,0.2,0.4,0.3c0.1,0.4,0.1,0.8,0,1.2
			c0,0.2-0.4,0.3-0.5,0.4C324.6,209.2,324.6,209.1,324.5,209.1z"/>
		<path class="st10" d="M324.6,213.4c-0.1-0.2-0.2-0.4-0.2-0.6c0.1-0.8-0.2-1.6,0.2-2.3c0.1,0,0.1,0,0.2,0c0,0.9,0,1.8,0,2.8
			C324.7,213.4,324.7,213.4,324.6,213.4z"/>
	</g>
	<path class="st12" d="M264.2,200.4c0-2.2,0-4.4,0-6.7c0.4,0,0.7,0,1.1,0c0-0.4,0-0.8,0-1.2c0-1.6,0.7-2.8,2.2-3.5
		c1.4-0.7,2.8-0.5,4.1,0.4c1,0.7,1.5,1.7,1.5,3c0,0.4,0,0.8,0,1.2c0.4,0,0.7,0,1.1,0c0,2.2,0,4.4,0,6.7
		C270.9,200.4,267.6,200.4,264.2,200.4z M270.9,193.7c0-0.6,0-1.2,0-1.7c-0.1-0.9-0.7-1.5-1.5-1.5c-0.8-0.1-1.5,0.4-1.7,1.2
		c-0.1,0.7-0.1,1.3-0.1,2C268.7,193.7,269.8,193.7,270.9,193.7z"/>
</g>
<g id="individual_coutnries" class="st0">
	<path class="st13" d="M139.2,68.3c0-0.1,0-0.2,0-0.2c0.7-1.2,1.4-2.3,2-3.5c0.5-0.9,0.8-2,0.5-3c-0.2-0.8-0.1-1.5,0-2.3
		c0-0.2,0.1-0.4,0.1-0.5c-0.1-0.8,0.3-1.4,0.7-2c2-3,3.3-6.3,4.4-9.7c0.2-0.7,0.5-1.3,0.9-2.1c-0.4-0.5-0.3-0.9,0.2-1.5
		c0.2-0.2,0.4-0.3,0.2-0.7c-0.5-0.7-0.4-0.8,0.4-1c-0.8-2-0.6-4-0.5-6.2c0.6,0.4,1,0.7,1.5,0.9c0.9,0.5,1.8,0.9,2.7,1.3
		c0.4,0.2,0.8,0.1,1.1-0.4c0.1-0.1,0.3-0.2,0.5-0.4c0,0.7-0.4,1.4,0.3,1.9c0-0.7,0.1-1.4,0.1-2.1c0-0.7-0.1-1.3-0.2-2
		c0.3,0.1,0.7,0.2,1.1,0.3c7.5,1.7,15,3.5,22.5,5.1c7,1.5,14.2,2.6,21.3,3.3c4.8,0.5,9.6,0.9,14.3,1.2c5,0.2,10.1,0.2,15.1,0.3
		c1.1,0,1.1,0,1.2-1.1c0-0.4,0.3-0.6,0.7-0.4c0.2,0.1,0.4,0.4,0.5,0.6c0.1,0.4,0.2,0.9,0.3,1.3c0.1,0.4,0.3,0.6,0.7,0.7
		c0.6,0.1,1.2,0.4,1.8,0.6c0.2,0.1,0.5,0.1,0.6,0c0.7-0.5,1.4-0.3,2.1,0c0.5,0.2,1.1,0.5,1.6,0.6c0.5,0.1,0.9,0,1.2,0.6
		c0.1,0.2,0.5,0.3,0.7,0.4c0.8,0.2,1.6-0.1,2-0.4c1.4,0.2,2.6,0.4,3.8,0.6c0.1,0.1,0.1,0.1,0.2,0.2c-0.2,0.1-0.5,0.3-0.7,0.4
		c-0.4,0.2-0.8,0.4-1.3,0.6c-1.1,0.3-2,0.8-2.7,1.7c-0.7,0.9-1.4,1.7-2.2,2.7c0.3,0,0.7,0.1,1,0c0.5-0.2,1-0.5,1.5-0.7
		c0.3-0.1,0.7-0.2,1-0.3c0,0.1,0.1,0.1,0.1,0.2c-0.2,0.4-0.4,0.7-0.6,1.1c0.5,0.1,1,0.1,1.5,0.2c0.5-0.3,1.1-0.6,1.7-0.9
		c1.3-0.6,2.5-1.2,3.3-2.4c0.5-0.7,1.4-1.1,2.4-1c-0.4,0.5-0.8,0.8-1.1,1.2c-0.3,0.4-0.6,0.8-0.9,1.3c1.3-0.4,2.5-0.2,2.9,0.6
		c0.4,0.8,0.9,0.8,1.6,0.7c0.5-0.1,1.1-0.2,1.6-0.4c0.7-0.3,1.4-0.6,2.2-0.9c0.6-0.2,1.2-0.3,1.8-0.5c0,0.2,0.1,0.2,0.1,0.3
		c0,1.1,0.2,1.2,1.3,0.9c0.4-0.1,0.9-0.3,1.4-0.4c0,0.9-0.1,1.7,0.7,2.3c-1.2,0.1-2.3,0.3-3.5,0.2c-0.7,0-1.3,0.1-1.9,0.3
		c-0.4,0.2-0.8,0.4-1.2,0.6c-0.7,0.4-1.5,0.6-2.2,0.4c-0.8,1.7-1.6,3.4-2.4,5.1c0.1,0,0.1,0.1,0.2,0.1c1.1-0.7,1.4-1.9,2.3-3
		c-0.1,0.6-0.2,1-0.3,1.4c-0.7,2.7-1.3,5.4-1.2,8.3c0.1,1.7,0.4,3.2,1.4,4.6c0.9,1.2,1.3,1.3,2.4,0.1c1.3-1.5,1.7-4.4,0.6-6.3
		c-0.5-0.9-0.7-1.7-0.5-2.7c0-0.1,0-0.1,0-0.2c0.3-1.3,0.5-2.6,0.9-3.8c0.2-0.6,0.7-1.2,1.1-1.9c0.5,0.8-0.4,1.4,0,2.1
		c0.4,0,0.6-0.3,0.6-0.6c0-0.3,0-0.6-0.1-0.9c-0.1-0.6,0.3-0.8,0.8-0.9c0.1,0,0.2,0,0.4-0.1c-0.7-0.5-0.7-1.1,0.1-1.4
		c0.4-0.2,1-0.1,1.5,0c0.8,0.2,1.6,0.6,2.4,0.8c0.3,0.1,0.5,0,0.6,0.4c0,0.2,0.4,0.4,0.4,0.7c0.1,1,0.1,2,0.1,3
		c0,0.7-0.2,1.3-0.9,1.6c-0.5,0.2-0.3,0.7-0.3,1c0,0.2,0.2,0.5,0.3,0.5c0.3-0.1,0.6-0.2,0.8-0.4c0.3-0.3,0.5-0.8,0.7-1.2
		c0.5-0.6,0.9-0.7,1.4-0.1c0.3,0.4,0.6,0.8,0.8,1.2c0.6,1.4,0.7,2.9,0.9,4.4c-0.8,0.1-1.1,0.6-1.3,1.2c-0.2,0.6-0.4,1.3-0.7,1.9
		c-0.3,0.7-0.3,0.9,0.4,1.1c0.5,0.2,1.1,0.1,1.6,0.4c0.6,0.4,1.1,0.2,1.6-0.1c0.1-0.1,0.2-0.1,0.3-0.2c3-1.5,5.8-3.4,8.1-6
		c0.8-0.9,0.8-0.9,0.2-1.9c0-0.1-0.1-0.1-0.1-0.2c-0.4-0.7-0.3-0.9,0.5-1.1c1.3-0.3,2.6-0.4,3.9-0.6c1.2-0.2,2.4-0.4,3.2-1.4
		c0.5-0.5,0.5-1.7,0-2.2c-0.5-0.5-0.5-0.8,0-1.3c0.5-0.5,0.9-1.1,1.3-1.7c0.2-0.3,0.3-0.7,0.5-1c0.4-0.7,1-1.2,1.9-1.3
		c0.9-0.1,1.8-0.2,2.6-0.4c1.7-0.4,3.4-1,5.2-1.4c0.7-0.2,1.1-0.5,1.2-1.2c0-0.1,0.1-0.2,0.1-0.3c0.5-0.1,0.9-0.2,1.3-0.2
		c0.1-0.4,0-0.9,0.2-1.2c0.7-1.1,0.6-2.2,0.5-3.5c-0.1-1.8,0.7-3.5,1.4-5.2c0.2-0.4,0.5-0.3,0.6,0c0.3,0.6,0.7,0.6,1,0.2
		c0.7-0.9,1.6-0.8,2.4-0.3c0,0,0,0,0.1,0c0.1,0.1,0.3,0.2,0.3,0.3c0.5,1.5,0.9,3,1.3,4.5c0.3,1.1,0.3,1.1,1.4,1.1c0,0,0.1,0,0.1,0
		c0.1,0.3,0.3,0.5,0.3,0.8c0,0.6,0.2,0.8,0.8,0.6c0.1-0.1,0.4,0,0.5,0.2c0.4,0.4,0.6,0.9,0.4,1.5c-0.5,1.3-1.4,2.2-2.8,2.2
		c0.1,0.3,0.1,0.6,0.1,0.9c0,0.1-0.3,0.2-0.3,0.2c-0.2-0.2-0.3-0.4-0.5-0.6c-0.5,0.5-0.1,1.6-1.1,1.8c0-0.3,0-0.6,0.2-0.7
		c0.4-0.3,0.2-0.5-0.1-0.7c-0.1-0.1-0.3-0.1-0.6-0.3c0,0.5,0.1,1,0.1,1.4c0,0.2,0,0.4-0.1,0.5c-0.8,0.6-1.5,1.1-2.3,1.6
		c-0.3,0.1-0.4,0.2-0.5,0.5c-0.6,2-0.6,4-0.6,5.9c0.4,0.4,0.8,0.6,1.1,0.9c0.3,0.3,0.4,0.6,0.7,0.8c0.3,0.2,0.6,0.2,1,0.2
		c0.2,0,0.4-0.2,0.5-0.4c0-0.1-0.2-0.3-0.3-0.5c-0.2-0.2-0.4-0.3-0.7-0.5c1.1,0,1.5,0.6,1.4,1.5c-0.7,0.5-1.4,0.9-2.1,1.4
		c0-0.2,0-0.5,0-0.9c-0.3,0.2-0.6,0.4-0.6,0.5c-0.1,0.9-0.8,1.2-1.4,1.5c-1.3,0.6-2.6,1-3.8,1.6c-1.2,0.5-2.3,1.3-2.9,2.5
		c-0.3,0.5-0.5,1-0.7,1.6c0,0,0.1,0.1,0.1,0c0.6-0.3,0.7,0,0.8,0.5c0,0.7,0.1,1.3,0,2c-0.2,1.7-0.8,3.1-2.1,4.2
		c0.1-0.3,0.2-0.5,0.2-0.7c-0.7-0.3-1.4-0.5-2-0.8c0.3,0.7,0.7,1.4,1.3,1.9c0.5,0.4,0.7,0.8,0.8,1.4c0.3,2.3-1,4.3-1.5,6.5
		c-0.6-0.6-0.6-1.2-0.5-1.8c0.1-0.6,0.2-1.2,0.2-1.8c0-0.6-0.3-0.9-0.9-1.1c0.1,0.4,0.3,0.8,0.4,1.2c-0.1,0-0.1,0.1-0.2,0.1
		c-0.2-0.3-0.3-0.5-0.5-0.8c-0.2-0.3-0.3-0.6-0.5-0.7c-0.5-0.2-0.5-0.5-0.4-0.9c0-0.2-0.1-0.5-0.1-0.7c0-0.8-0.1-1.7-0.1-2.7
		c-0.2,0.4-0.5,0.6-0.5,1c-0.3,1.2-0.2,2.4,0.6,3.4c0.3,0.4,0.4,0.7,0,1.1c0.9,0.9,1.3,1.7,1.3,2.9c-0.1,0-0.2,0-0.4,0
		c0.4,0.6,0.7,1.1,1,1.7c0.9,0,0.9,0,1.3,0.9c0.4,0.9,0.9,1.8,1.4,2.7c0.3,0.5,0.1,1.1-0.5,1.2c-0.2,0.1-0.4,0.1-0.6,0.1
		c0,0.1,0,0.1,0,0.2c0.3-0.1,0.6-0.1,0.9-0.2c0.4-0.1,0.6,0.1,0.4,0.5c-0.2,0.7-0.7,1.1-1.5,1.3c-0.3,0.1-0.6,0-1,0.1
		c0.3,0.7,0.1,1.1-0.4,1.6c0.5,0,1-0.1,1.5-0.1c-0.1,0.6-0.5,1-1,1.3c-0.7,0.4-1.5,0.8-2.2,1.2c-0.9,0.5-1.5,1.3-1.6,2.4
		c0,0.4-0.2,0.5-0.5,0.5c-2,0.4-2.9,1.4-3.1,3.4c0,0.2-0.1,0.4-0.2,0.5c-0.7,0.8-1.4,1.6-2.1,2.3c-0.7,0.7-1.8,1.2-2,2.3
		c0,0.1-0.1,0.2-0.2,0.2c-1.4,1.5-1.7,3.4-1.6,5.4c0.2,3.5,1.9,6.4,4.3,8.9c0.4,0.4,0.7,0.7,0,1.2c0.6,1,1.2,2,1.7,3
		c1.4,2.4,2.2,5,1.7,7.8c0,0.2,0.1,0.4,0.3,0.7c-0.3,1.6-1.7,3.4-2.9,3.6c0.5-1,1.8-1.2,2.1-2.5c-0.9,0.3-1.7,0.6-2.5,0.9
		c-0.3-0.7-0.6-1.4-1-1.9c-0.3-0.4-0.8-0.9-1.2-0.9c-0.9,0-1.1-0.6-1.3-1.2c-0.1-0.2-0.2-0.5-0.3-0.7c-0.1-0.3-0.3-0.5-0.6-0.2
		c-0.4,0.3-0.6,0.1-0.8-0.3c-0.5-0.8-0.9-1.7-1.5-2.4c-0.6-0.8-1.2-1.4-0.2-2.3c0.1-0.1,0.1-0.5,0-0.7c-0.1-0.1-0.4-0.1-0.6-0.1
		c0,0.5,0,0.9,0.1,1.3c-0.6-0.4-0.8-0.9-0.8-1.5c0-1,0-2,0-3c0-1.1-0.4-1.4-1.4-1.8c-0.5-0.2-1-0.6-1.4-1c-0.4-0.3-0.7-0.8-1.1-1.1
		c-0.6-0.6-1.4-0.9-2.2-0.9c-0.2,0-0.5,0.1-0.5,0.2c-0.6,1.3-1.8,1.5-3.1,1.7c-0.2,0-0.5-0.1-0.6-0.3c-0.6-0.8-1.3-1.4-2.3-1.5
		c-0.9-0.2-1.9-0.3-2.8-0.2c-1.3,0.1-2.7,0.5-3.8,0.7c-0.1-0.4-0.2-0.9-0.5-1.3c-0.2-0.3-0.4-0.2-0.6,0.1c-0.1,0.2-0.1,0.4-0.1,0.5
		c-0.1,0.4-0.3,0.6-0.7,0.6c-0.8,0-1.7,0-2.5,0.1c-1.3,0.1-2.3,0.8-2.6,2c0.8,0.4,0.8-0.9,1.4-0.7c0.5,1-0.2,1.6-1.1,2.2
		c0.4,0.2,0.6,0.4,0.9,0.5c0.3,0.1,0.7,0.2,1.1,0.3c0.2,0.1,0.4,0.4,0.6,0.6c-0.3,0.2-0.6,0.3-0.9,0.4c-0.1,0-0.3,0-0.5-0.1
		c-0.6-0.4-1.3-0.7-2-1.2c-0.1,0.2-0.3,0.5-0.4,0.8c-0.1,0.6-0.4,0.9-1,1c0.1-0.2,0.1-0.2,0.1-0.3c0-0.2,0.1-0.3,0.1-0.5
		c-0.2,0-0.4-0.1-0.6,0c-0.3,0.1-0.5,0.3-0.7,0.5c-0.3,0.3-0.6,0.4-1,0.3c-0.3-0.1-0.6-0.2-0.9-0.3c-0.5-0.2-0.9-0.4-0.5-1
		c-0.4-0.3-0.8-0.5-1.1-0.7c-0.4-0.2-0.7-0.5-1.1-0.7c-0.4-0.2-0.8,0-1.2,0.5c0.4,0,0.7,0,1,0c0.3,0,0.6,0.1,0.7,0.6
		c-0.9-0.1-1.7-0.2-2.5-0.3c-1.7-0.1-3.4-0.3-5.1-0.3c-1.3,0-2.4,0.6-3.3,1.5c-0.8,0.8-1.7,1.5-2.7,2.1c-2.1,1.3-4.3,2.6-6.5,3.9
		c-0.2,0.1-0.5,0.5-0.5,0.8c-0.1,0.7-0.2,1.4-0.2,2.2c0,1.8,0.1,3.5,0.2,5.3c-2.1-0.5-4.3-0.9-6.2-2.3c-0.9-0.7-1.7-1.7-1.7-2.8
		c0-1.2-0.4-2.1-1.2-2.9c-0.5-0.5-0.8-1.2-1.3-1.6c-0.5-0.4-0.6-0.8-0.8-1.4c-0.8-3.3-2.6-5.4-6.1-6c-1-0.2-1.7,0.1-2.2,0.9
		c-0.3,0.5-0.5,1-0.8,1.4c-0.2,0.4-0.6,0.7-0.8,1.1c-1.2-0.6-2.3-1.2-3.4-1.8c-1.1-0.6-1.8-1.5-1.9-2.8c-0.1-0.5-0.1-1.1-0.2-1.6
		c-0.2-0.9-0.5-1.7-1.4-2.2c-0.7-0.4-1.2-0.9-1.7-1.5c-0.7-0.7-1.2-1.6-1.8-2.4c-0.3-0.4-0.6-0.5-1-0.6c-0.7-0.1-1.4-0.1-2.2-0.2
		c-1-0.1-2.1-0.3-3.2-0.5c-0.1,0.7-0.2,1.3-0.3,1.9c-0.2,0-0.3,0-0.4,0c-1.5-0.2-3-0.4-4.5-0.6c-2.8-0.4-5.6-1-8-2.4
		c-3.1-1.8-6.1-3.6-9.1-5.5c-0.1-0.1-0.1-0.3-0.1-0.5c0-0.1,0.1-0.2,0.3-0.4c-0.8-0.1-1.4-0.2-2.1-0.3c-1.8-0.2-3.5-0.5-5.3-0.8
		c-1-0.2-1-0.2-1-1.3c-0.1-2-0.5-3.8-2.8-4.5c-0.1,0-0.1-0.3-0.2-0.5c0-0.2,0-0.5-0.1-0.5c-1.3-0.5-2-1.6-3-2.5
		c-0.7-0.7-1.6-1.1-2.6-1.1c-0.6,0-0.8-0.3-0.8-0.9c0-0.2,0.1-0.5,0.2-0.7c0.4-0.9,0.3-1.7-0.1-2.6c-0.4-0.8-0.9-1.6-1.3-2.5
		c-0.4-0.9-0.7-1.7-1-2.6c-0.1-0.3,0.2-0.7,0.4-1c0.1-0.2,0.4-0.4,0.6-0.7c-1.5-1.3-1.9-2.5-1.4-4.4c0-0.1-0.1-0.4-0.2-0.5
		c-0.2-0.4-0.6-0.8-0.6-1.3c0-1.2-0.5-2.2-1.2-3.2c-0.4-0.6-0.5-1.3-0.4-2.1c0.2-1,0.4-2,0.5-3C140.2,69.2,139.9,68.6,139.2,68.3z"
		/>
	<polygon class="st13" points="465.9,111.8 464.5,109.4 464.5,108.7 464.8,107.8 464.8,107.8 465,106.4 465.1,105.5 465.1,105.3 
		465,105.2 465,105.1 464.9,105.1 464.7,105.1 464.4,104.7 464.3,104.5 464.1,103.8 464,103.4 464,103.3 464,103 464,102.9 
		464.5,102.4 463.7,102.4 462,102 461.4,101.7 461.3,101.6 461.2,101.6 461.1,101.6 461.1,101.7 460.9,101.7 459.8,102 459.4,102 
		459.3,101.9 459.1,101.8 458.9,101.3 458.8,101.1 458.7,101 458.4,100.8 458.7,100.3 458.3,100.2 458,100.1 457.9,99.8 458.2,99.4 
		457.6,98.5 458.3,97.4 458.8,97 459.6,96.4 460.6,95.5 460.6,95.3 461,94.7 461.1,94.6 461.3,94.2 461.2,93.8 458.5,93.8 
		457.7,93.3 457.2,92.4 457.8,92 455.8,89.1 455.4,88.4 454.6,87.7 453.9,87.6 452.3,88.1 451.8,88 451.7,87.8 451.6,87.5 
		451.8,86.8 451.8,86.7 451.7,86.2 451.5,86.1 451.1,85.9 451,85.8 451,85.6 451.1,85.5 451.1,85.5 450.6,85.6 450.3,85.6 
		447.5,85.5 447.4,85.5 447.1,85.4 447.9,86.4 447.8,86.6 447,85.6 446.5,85.5 443.1,85.6 442.7,85.3 441.9,84.5 441.7,84.5 
		441.5,84.4 441.1,84.6 441.1,84.7 440.8,85.1 440.8,85 440.6,85.3 440.4,85.4 440.2,85.4 440,85.4 439.7,85.4 439.4,85.2 439.2,85 
		439,85 439,85 439.2,84.1 439.4,83.6 439.4,83.3 439.4,82.8 438.9,82.7 438.8,82.7 438.3,82.4 438.2,82.3 438,82.3 437.9,82.2 
		438,82.1 437.3,81.7 436.8,80.8 436.7,80.7 436.6,80.2 436.6,79.3 437.1,78.7 439.4,76.1 439.5,76.1 439.9,75.9 440.3,75.8 
		440.5,75.6 441,74.9 441.7,73.4 442.1,72.9 442.2,72.7 441.8,72.4 441.4,72.4 440.5,72.7 442.1,70.2 442.7,68.6 442.2,67.9 
		442.2,67.4 442.3,67.1 442.3,66.9 442.4,66.5 442.8,66.3 443.2,66.7 443.5,66.3 443.5,66.2 443.7,65.8 444,65 444,64.9 443.9,64.7 
		443.8,64.5 443.8,64.2 443.7,64.1 444.1,64.1 444.5,64.1 444.8,64 444.9,63.9 445,63.9 445.3,63.7 444.4,62.8 444.5,62 444.7,61.8 
		445,61.5 444.9,61.2 444.6,60.4 444,60.4 443.4,60.5 442.8,60.7 442.7,60.6 442.2,60.2 441.4,59.1 440.7,58.7 440.5,58.6 
		440.2,58.6 439.5,58.7 438.5,58.9 437.9,58.9 437.7,58.8 437.5,58.6 437.1,58.1 436.8,57.9 436.5,57.7 434.3,57.1 433.4,56.4 
		433.2,54.9 432.9,53.7 432.8,53.5 432.2,52.7 431.7,52.4 431.3,52.2 430.4,52.1 429.8,52.3 429.6,52.4 428,53.6 427.1,53.9 
		422.5,53.7 421.1,54 421,54 420.3,53.9 420.3,51.6 419.6,50.8 419.1,50.7 418.9,50.7 417.3,50.8 416.7,50.5 416.6,50.5 416.6,50.4 
		416.4,50.1 416,48.7 415.8,48.1 414.5,46.6 414.2,46 414.3,45.2 414.4,44.7 414.8,43.7 415,42.6 414.5,41.6 414.2,41.1 413,40.3 
		413,40.2 412.9,40.1 412.3,40.3 412.1,40.6 412,40.8 411.9,41.2 411.8,41.6 411.6,42 411.3,42.6 411,43 410.7,43.4 410.1,44.2 
		409.6,44.8 409.1,45.3 408.3,45.5 407.5,45.1 406.7,44.8 406.3,44.7 406,44.6 403.2,44.5 402.4,44.1 402.6,43.4 403.1,43.3 
		404.8,44.1 404.7,43.7 404.5,43 404.4,42.7 404.5,42 404.6,41.7 404.8,41.1 404.7,40.1 404.3,39.6 403.8,39.2 403.6,39.2 403.2,39 
		402.9,38.9 402.4,38.9 401.1,39.5 398,43.3 397.6,43.6 397.1,43.8 396.4,43.8 395.2,43.5 394.3,43.6 394,43.7 393.8,43.7 
		393.5,43.6 393,43.3 392.8,43.1 392.8,42.8 392.8,42.5 393.2,41.7 393.2,40.6 392.9,40.1 392.4,40 392.3,40 391.2,40.2 390.5,40.5 
		389.1,41 387.1,42.2 387.5,42.7 387.4,43.2 387.2,43.7 387.2,44.3 387.4,44.7 387.5,44.9 388.4,45.9 388.6,46.4 388.6,46.5 
		388.5,47.4 388.4,47.6 387.7,48 387.4,48 385.9,47.9 385.6,47.8 385.1,47.7 384.1,47.1 383.7,46.9 382.5,46.8 383.1,47.6 
		383.4,48.1 383.6,48.7 383.5,50.1 383.7,50.6 384,50.9 385.3,51.4 384.8,52.6 384.5,53 384.3,53 384,53.2 384.4,52.6 384.5,52.2 
		384.4,51.8 384.3,51.4 383.8,50.8 383.1,50.2 382.4,49.4 382.1,48.2 381.8,47.6 381.1,46.9 381.1,46.9 381.1,47.2 380.8,48.7 
		380.7,48.8 380.6,49.3 379,51.4 377,52.9 372.2,55.4 370.6,56.6 370.4,56.8 370.1,56.9 369.5,57.1 364.8,57.2 364.8,57.2 364.3,57 
		363.8,56.3 363.7,55.7 363.8,55 363.6,54.1 362.8,53.6 358,52 357,51.9 356.1,51.9 356,51.9 354.4,52.3 353.8,52.3 353.2,52.5 
		353.2,52.5 352.8,52.9 352.7,53.4 352.7,53.7 352.8,54.5 352.8,54.8 352.7,55.1 352.4,55.1 350.8,55.4 350.4,55.3 349.5,55.2 
		349,55 348.5,54.8 348.3,54.7 347.4,53.7 347.2,53.1 346.9,52.1 346.9,50.7 347,49.1 346.9,48.3 346.7,46.7 337.8,49.6 329.9,54.8 
		321.7,59.6 316.4,63.6 314.9,64.1 314.1,64.7 314.6,65.9 314.6,66.1 315,68.3 315,68.8 315.4,70.1 316.8,71.6 317.5,72.6 
		317.6,73.8 317.5,73.9 317.4,74.2 316.8,74.7 316.4,75.1 316.2,75.6 316.6,77 317,78.4 316.9,78.8 316.6,79.5 316.6,79.8 
		316.7,79.8 316.8,80 317.1,80.1 317.2,80.2 317.3,80.3 317.4,80.4 317.6,80.9 317.7,81.2 317.9,81.6 318,81.6 318.2,81.7 
		318.7,81.8 319.1,81.8 319.8,81.7 320.2,81.7 320.8,82 321,82.3 321.1,82.8 321.4,83.2 322.7,84.5 322.8,84.6 323.1,85 323.6,86.3 
		323.8,86.5 323.9,86.7 324.3,87.1 324.5,87.3 324.9,87.5 327.7,88.8 327.7,88.8 327.8,88.8 327.9,88.9 328,88.9 328.1,88.9 
		328.3,89 328.5,89 329,88.6 329.7,87.4 330.2,86.6 330.5,86.2 330.9,85.8 331.3,85.5 331.8,85.3 333.5,84.8 333.9,84.7 333.9,84.6 
		334,84.5 334,84.5 334.1,84.5 334.2,84.5 335.3,84.1 337.1,83.5 337.3,83.6 338.1,83.8 338.8,84.4 339.4,85.4 339.5,85.6 
		339.3,85.7 339.4,85.9 339.9,86.7 340.4,87.9 340.7,88.3 341.2,88.3 341.7,88.5 341.8,88.5 342.1,89.1 342.3,89.9 342.5,90.5 
		342.2,91 341.9,91.5 342.2,93.3 343.3,96.8 343.3,98.8 343.5,99.5 343.6,99.6 344.2,100.3 344.7,100.7 346.5,101.6 347.1,101.8 
		347.7,101.7 348.1,101.7 348.5,101.5 349.8,101 350.2,100.7 350.4,100.6 350.6,100.4 350.8,100.2 350.9,100.2 351.2,100 351.4,100 
		351.8,99.9 352.2,100.1 352.4,100.1 352.6,100.5 352.6,101 352.5,101 352.2,101.7 352.7,102 355.2,102 356.1,102.2 357,102.6 
		357.7,103.5 358.4,104.7 358.7,107.1 358.7,109.9 359,112.5 360.4,113.7 360.6,113.4 360.6,113.3 360.7,113.4 360.9,113.2 
		360.9,113.1 361,113 361,112.9 361.2,112.6 361.9,111.4 362.2,111 362.5,110.9 362.7,110.8 364.4,110.6 366.1,110.8 366.9,111.3 
		367.2,111.5 367.6,111.7 368.1,112 368.3,112 369.2,112 370,111.7 371.6,111 372.1,110.9 372.4,110.9 373.2,111.2 373.2,111.2 
		374.5,112.7 374.8,112.9 375.4,113.2 376.1,113.9 376.4,114.4 377.2,116.2 377.4,116.3 377.9,116.5 378.1,116.4 378.2,116.3 
		378.2,115.5 378.7,115.3 379.1,115.4 379.3,115.5 379.6,115.7 380.1,116.1 380.4,116.6 380.3,116.9 380.3,117.2 380,117.6 
		379.9,117.6 379,118.4 378.6,119 378.6,119 378.4,119.4 378.2,120.6 377.9,121.5 377.4,123 377.4,123.2 377.3,124.2 377.6,124.3 
		377.9,124.4 378.7,124.1 379.1,124 379.5,124.2 380.1,126.9 380.2,127.1 380.4,127.5 380.6,128 380.6,128.4 380.2,128.6 
		379.7,128.8 379.4,129 378.8,129.5 378.5,129.7 378,130.1 377.7,130.5 377.7,130.5 377.6,130.9 377.4,131.6 377.6,131.6 
		377.7,132.1 377.8,132.6 377.8,132.9 377.9,133.5 377.6,133.5 379.8,134.7 379.9,134.7 380.3,134.9 382.2,134.6 383.3,134.4 
		384.4,134.7 389.2,136.1 389.6,136.2 390.7,136 394.8,133.9 396.2,133.2 397.9,132.9 398,132.8 398.3,132.6 398.6,132 398.6,132 
		398.9,131 399.1,129.7 399.2,129.1 399.2,128.6 399.1,128.4 399,128.3 399,128.2 398.9,127.9 399,127.3 399.3,126.8 403.5,122.6 
		404.5,122.1 404.5,122.1 404.7,123 405.1,123.2 406.4,122.9 406.7,123.4 406.7,124.5 406.5,125.8 406.5,126.2 406.4,126.8 
		406,126.4 405.8,126.4 405.2,127.6 405,128 405,128.2 405,128.6 405,129.1 405,129.6 405,129.7 404.5,130.8 403.5,133.5 
		403.3,134.5 403.8,135.4 404.5,135.7 405.6,136.2 406.2,137.3 406.3,137.7 406.3,138 406.2,138.6 406.1,138.8 406,139.1 
		405.9,139.6 405.8,139.8 405.7,140.1 405.7,140.1 405.4,140.6 405.3,141 405.4,141.3 405.8,141.9 405.9,142.2 405.9,144.5 
		406.2,145 406.6,145 407.2,145.1 407.5,145.1 408.1,145 409.1,144.7 409.8,144.4 410.3,144.4 410.7,144.3 410.8,144.4 410.8,144.4 
		411.4,144.5 412.8,146 413.6,146.4 414.7,146.7 415,146.8 415.5,147.3 416.2,148.3 417.2,149.7 417.6,150.1 417.8,150.2 
		418.5,150.8 419.4,151 420.6,150.7 421.2,150.5 422,150.5 422.9,151.4 423.6,152.3 423.9,153.2 423.8,153.3 423.7,153.5 
		423.5,153.6 423.4,153.6 423.3,154.5 423.4,154.8 423.4,155.1 423.6,155.3 424.3,155.4 424.5,155.4 424.5,155.4 424.7,155.1 
		424.9,154.7 425,154.6 425.3,154.6 425.5,154.7 425.7,154.9 426.9,155.3 427.6,156 429.5,159.4 429.7,160 429.7,160.6 429.5,161.2 
		429.5,161.7 429.5,161.8 429.7,162.3 430.6,162.5 430.8,162.4 431.6,161.9 432.2,161.5 432.6,161.2 432.9,161.1 433.4,160.8 
		434.6,161.4 435,161.5 435.3,161.5 435.5,161.5 435.6,161.3 435.7,161.2 435.8,160.8 436.3,160.2 437.3,159.7 438.2,159.9 
		439,160.3 439.8,160.4 439.9,160.4 440.3,160.2 440.8,159.5 441.3,159.3 441.7,159.3 442.6,159.9 442.7,159.9 443.1,160 444,159.5 
		444.9,158.6 445.1,158.2 445.3,157.7 445,157.5 444.6,157.3 445.1,156.9 445.4,156.3 445.6,155.7 445.9,154.9 446.2,154.5 
		446.6,154.1 446.8,153.6 446.7,153.3 446.6,152.8 446.3,152.6 445.5,152.5 445.2,152.3 445.2,152.1 445.1,151.8 445.1,151.6 
		445.2,151.4 445.2,151 445.3,150.6 445.5,150.4 445.6,150.3 445.6,150.2 445.6,149.9 445.6,149.7 445.3,149.4 445.1,149.4 
		445,149.4 444.9,149.5 444.6,149.4 444.5,149.4 444.2,149 443.7,148.9 443.5,148.7 443.5,148.6 443.4,147.8 443.4,147.5 
		442.7,146.1 442.4,145.6 442.4,145.6 442.1,145.3 441.8,145.1 441.6,145 441.2,144.9 441.2,144.9 440.8,144.7 440.4,144 
		440.3,143.7 440.1,143.3 440.1,142.6 440.3,142 440.7,141.7 440.4,141.4 440.4,141.2 440.5,141 440.5,141 440.6,140.9 440.6,140.5 
		441.6,140.6 441.2,140.1 440.5,139.5 440.4,139.4 439.9,139.2 440,138.8 440.1,138.6 440.6,137.7 441.5,136.3 441.6,136 
		441.6,135.9 441.7,135.7 441.7,135.6 441.8,135.4 441.9,135.2 441.9,135.1 442.2,134.8 442.4,134.6 443,134.5 443.2,134.3 
		443.4,134.1 443.8,133.3 443.7,133 443.4,132.6 443.4,131.8 443.7,131.5 444.4,131.1 444.7,130.9 444.7,130.8 444.7,130.8 
		444.8,130.3 444.8,129.6 444.8,129.1 444.9,128.8 445,128.7 445.6,128.1 445.8,127.9 445.9,127.8 445.9,127.6 446,127.3 446,126.9 
		446.1,126.4 446.2,126 446.5,125.7 446.9,125.3 448.4,124.7 449,124.1 449.3,123.2 449.3,123.1 449.5,122.4 449.8,121.8 
		450.2,121.7 450.6,121.7 451.2,121.2 451.3,121.2 451.5,121.5 451.6,122.1 451.8,122.5 452.2,122.7 452.3,122.7 452.8,122.8 
		453.7,122.6 453.7,122.6 454,122.4 454.3,122.1 454.6,122.1 455.1,122.6 455.1,122.6 455.2,123.2 455.2,123.8 455.3,124.1 
		455.4,124.3 455.9,124.5 456.2,124.1 456.3,123.8 456.4,123.7 456.2,123.3 455.8,123 455.9,122.7 456,122.4 456.1,122 456.1,122 
		456.1,121.9 456.4,121.8 456.5,121.7 457.3,121.7 457.5,121.5 457.6,121.5 457.8,120.9 457.8,120.2 457.7,119.6 457.6,119.5 
		457.1,118.9 457.5,118.4 457.7,118.2 458.4,117.7 458.5,117.5 458.7,117.1 459.6,116.7 460.2,116.6 461.1,116.3 461.9,115.7 
		461.7,115.1 461.8,114.5 462.1,113.9 462.2,113.7 462.5,113.5 462.8,113.3 463,113.1 463.4,113.2 463.6,113.2 463.9,113.3 
		464.4,113.4 465.5,113.2 465.7,113 466,112.7 	"/>
	<g class="st14">
		<path class="st7" d="M430.8,251.6c-0.8,0.1-1.5,0.1-2.2,0.1c-0.4,0-1.2-0.1-1.2-0.2c-0.1-0.6-0.2-1.4,0.1-1.9
			c1.9-2.8,2.9-5.9,3.2-9.1c0.1-0.7-0.1-1.5-0.3-2.2c-0.4-1.2-1.5-1.6-2.6-1.6c-1,0-2,0-2.9-0.1c-0.4,0-0.8-0.4-1.1-0.6
			c0.2-0.3,0.4-0.7,0.7-1c0.1-0.1,0.2-0.2,0.3-0.4c-0.3-0.5-1.4-0.7-0.7-1.6c-0.4-0.2-0.9-0.6-1.2-0.4c-1.1,0.6-2.3,0.4-3.4,0.6
			c-2.1,0.4-4.1,1.3-6.1,2.1c-0.2,0.1-0.4,0.5-0.5,0.8c-0.6,1.1-2.2,1.3-3.2,0.6c-0.5-0.3-1.3-0.3-1.9-0.5c-0.4-0.1-0.9-0.1-1.2-0.4
			c-1.9-1.8-2.3-1.8-4.2,0c-0.5,0.5-1.2,0.9-1.8,1.3c-0.1-0.3-0.1-0.3-0.1-0.4c0.1-0.6,0.2-1.2,0.4-1.9c-0.6,0.1-1.3,0-1.9,0.2
			c-1.4,0.5-2.6,0.1-3.8-0.4c-0.7-0.3-1.4-0.3-2.1-0.5c-0.5-0.1-1-0.3-1.4-0.6c-1.3-0.9-2.3-2.3-4-2.6c-0.7-0.1-0.7-0.7-0.5-1.4
			c0.4-1.2,0.3-1.3-0.9-1.2c-0.4,0-0.9-0.2-1.2-0.5c-1.4-1.3-2.8-2.7-4.2-4.1c-0.2-0.2-0.8-0.4-1-0.3c-0.9,0.6-1.4,0.1-1.9-0.5
			c-1.4-1.5-2.8-2.9-4.3-4.3c-0.5-0.5-0.7-1-0.3-1.7c0.4-0.7,0.5-1.5-0.2-2.3c-0.2-0.3-0.1-0.8-0.1-1.3c0.1,0,0.2,0,0.3-0.1
			c0.3,0.3,0.6,0.6,1,0.9c0.5-0.2,1-0.4,1.4-0.6c0.5-0.2,0.7-1.4,0.2-1.9c-1-0.9-1.2-1.8-0.5-3.1c1.8,0.3,2.7-1.1,3.7-2.4
			c1-1.3,0.7-2.6-0.7-3.4c-1.1-0.6-2.2-0.8-3.5-0.4c-2,0.6-5.3-0.7-6.4-2.4c1.4-1.9,1.3-1.9-0.7-3.3c-0.9-0.6-1.8-1.3-2.6-2.2
			c1.1-0.2,2.4,0.4,2.9-0.9c0.3-0.8,0.4-1.7,0.4-2.6c0-1-1.1-1.8-2.5-1.8c-0.2-1.1-0.5-2.2,0.6-3.2c0.3-0.3,0.3-0.8,0.5-1.2
			c0.7-1.4,4-1.9,5.2-0.8c0.5,0.5,1.9,0.5,2.5-0.1c0.6-0.7,1.3-0.9,2.2-0.6c1.6,0.5,2.8-0.3,4.1-0.9c0.6-0.3,1.4-0.4,2.1-0.4
			c0.7-0.1,2.1-1.2,2.3-1.9c0.1-0.3,0.2-0.7,0.5-1c1.2-1.2,1.9-2.5,1.4-4.4c-0.2-0.7,0.2-1.5,0.3-2.3c0.1-0.4,0-0.9,0-1.5
			c1.7,0,3.4,0,5.4,0c-1-0.9-0.5-1.2,0.1-1.9c0.8-1,1.4-2.3,2-3.5c0.2-0.3,0.3-0.7,0.4-1.1c0.7,0.4,1.2,0.8,1.8,1.1
			c0.9,0.5,1.8,1,2.8,1.4c0.5,0.2,1.1,0,1.6,0c-0.1-0.5,0-1.1-0.2-1.5c-1-2.1-0.6-3.1,1.6-3.8c0.8-0.3,1.6-0.8,2.3-1.3
			c1-0.8,2.6-0.7,3.2,0.4c1.5,3,3.3,5.7,5.7,8.1c0.2,0.2,0.4,0.5,0.4,0.6c-0.2,1.2-0.4,2.4-0.9,3.5c-0.4,1-0.3,1.6,0.6,1.9
			c1.5,0.4,3,0.7,4.5,1c0.7,0.2,1.4,0.4,2,0.7c2.5,1.4,4.8,3.1,5.6,6.1c0.6,2.2,2.4,2.9,4.4,3.1c1.3,0.1,2.6-0.1,3.9-0.2
			c1.7-0.1,3.4-0.2,5.1-0.2c0.5,0,1.2,0.3,1.5,0.6c1.3,1.2,2.9,1.3,4.5,1.4c1,0,1.9,0.1,2.7,0.9c0.2,0.2,0.9,0.1,1.3,0
			c3.4-1.4,6.7-3.2,10.4-3.5c2.1-0.2,3.4-1,4.2-3c0.2-0.4,0.8-0.7,1.2-1c0.6-0.5,1.1-0.9,0.3-1.6c-0.6-0.6-0.7-2.7,0-3.3
			c0.4-0.4,1.1-0.7,1.6-0.6c1.7,0.3,3.1,0.2,4.1-1.5c0.2-0.3,0.7-0.5,1.1-0.6c0.9-0.4,1.9-0.6,2.8-1c0.5-0.2,0.9-0.6,0.9-1.4
			c-0.1-0.8,1.2-1.7,1.9-1.6c1.2-1.1,2.2-2.1,3.9-2.2c0.7,0,1.4-0.4,2.2-0.6c-0.5-0.6-0.9-1.2-1.4-1.7c-0.6-0.5-1.3-1-1.9-1.3
			c-1.4-0.8-2-0.6-2.8,0.7c-1.2,0.2-2.3,0.4-3.4,0.4c-0.3,0-1-0.7-1-1c0.3-1.9,0.8-3.7,1.3-5.6c0.1-0.2,0.7-0.5,1-0.4
			c1.4,0.2,2.7-0.1,3.9-0.9c0.9-0.6,1.2-1.3,1.2-2.5c0-1.5,0.8-3,1.4-4.5c0.3-0.7,0.9-1.3,1.1-2c0.4-0.9,0-1.2-0.9-1.1
			c-0.3,0-1,0-1-0.1c-0.1-0.4-0.1-0.9,0.1-1.3c0.3-0.7,0.7-1.3,1.6-1.5c1-0.3,1.9-0.9,2.8-1.4c1.2-0.7,2.4-1.3,3.9-0.4
			c0.6,0.4,1.5,0.4,2.3,0.4c1,0,1.6,0.3,2.2,1.1c1.7,2.3,3.3,4.6,5,6.9c0.4,0.6,0.9,1.2,1.3,1.8c0.4,0.6,0.8,0.8,1.8,0.7
			c1.7-0.1,3.4,0.4,5.2,0.7c0.2,0,0.3,0.4,0.4,0.6c0.2,0.4,0.4,0.9,0.6,1.3c0.7,1.4,1.5,1.7,2.9,1c0.9-0.4,2-0.7,2.3-1.8
			c0-0.1,0.1-0.2,0.1-0.2c1.4-0.1,2.2-1.4,3.2-2.1c0.8-0.5,1.2-0.2,1.2,0.7c0,1.1-0.2,2.2-0.3,3.4c-0.2,2.3-0.4,4.6-0.6,7
			c0,0.1,0,0.2,0,0.2c-0.1,2.2-0.8,2.7-2.8,1.7c-1.5,1.1-1.6,1.5-1.1,3.2c0.3,1.2,0.6,2.3,1.1,3.4c0.5,1.2,0.2,1.9-0.9,2.5
			c-0.4-0.3-0.8-0.7-1.3-1c0.1,2.4-2.1,4.9-4.1,5c-0.3,0.8,1.5,1.6,0.2,2.4c-0.8,0.5-1.8,0.6-2.6-0.4c-1.3,1.8-2.6,3.6-3.9,5.4
			c-1.1,1.5-2.2,3-4,3.9c-1.2,0.6-2.1,1.9-3.2,2.9c-0.3,0.3-0.6,0.6-1.1,1c-0.6-2.4,0.2-4.4,0.5-6.4c-1.1-0.6-2-0.6-2.9,0.5
			c-0.8,1-1.7,1.8-2.7,2.6c-0.8,0.7-1.2,1.4-1.6,2.3c-0.2,0.7-1.2,1.3-1.9,1.7c-0.7,0.4-1.7,0.1-1.8,1.3c0,0.8,1.1,2.2,2,2.4
			c0.3,0.1,0.7,0.2,1,0.2c0.9,0.1,1.4,0.4,1.7,1.4c0.3,1.3,1.3,1.5,2.3,0.6c0.7-0.7,1.3-1.4,2.1-2.1c0.3-0.2,0.8-0.4,1.2-0.3
			c1.4,0.3,2.7,1,4.3,0.1c-0.1,1.1-0.2,1.8-1.3,2.3c-1,0.4-1.8,1.2-2.5,2c-1.2,1.4-2.1,2.9-3.2,4.3c-0.7,0.9-0.5,1.7,0.2,2.4
			c0.1,0.1,0.2,0.2,0.3,0.3c2,0.9,2.8,2.7,3.6,4.4c0.8,1.7,2.5,2.4,3.8,3.6c0.4,0.3,0.9,0.6,1.1,1.1c1.1,1.9,0.9,2.5-1.2,3.3
			c-1.2,0.4-2.3,0.9-3.4,1.4c-0.4,0.2-0.8,0.6-1.2,0.9c0,0.1,0,0.2,0.1,0.3c0.5,0.1,1,0.2,1.6,0.2c1.5,0.1,2.9,0.1,4.4,0.2
			c1,0.1,1.4,0.6,1.5,1.7c0.1,2.1-0.9,3.9-1.5,5.7c-0.7,1.9-1.5,3.8-2.2,5.7c-1.1,3-2.6,5.7-4.9,8c-0.2,0.2-0.3,0.7-0.4,1
			c-0.1,0.3-0.1,0.6-0.3,0.8c-1.2,1.5-2.3,3-3.5,4.4c-2.2,2.4-5.1,3.1-8.2,3.2c-0.5,0-1-0.5-1.6-0.8c0.7,2.4-1.1,2.9-2.6,3.6
			c-2.1,1-4.3,1.8-6.4,2.8c-1.4,0.6-1.5,1.1-0.5,2.3c0.2,0.3,0.3,0.6,0.4,1c-0.3,0.1-0.7,0.3-1,0.3c-1.1,0-1.7-0.6-1.7-1.7
			c0-0.6,0.1-1.2,0.1-1.7c-1.4-0.5-2.8-0.9-4.2-1.4c-0.6,1.6-0.6,1.6-2.2,0.7c-0.5-0.3-1.3-0.2-1.9-0.3c-0.1,0-0.3,0.1-0.3,0.1
			c-0.6-0.6-1.2-1.1-1.7-1.7c-0.5-0.6-1.4-1.1-0.4-2.2c-0.6,0.1-1,0.1-1.4,0.1c-1.1,0.1-2-0.1-2.6-1.1c-0.7-1.1-1.9-0.9-2.3,0.3
			c-0.3,1-0.9,1.2-1.9,1.2c-1.2,0-2.4,0.3-3.6,0.4c-0.4,0-0.8-0.1-1.2,0.1c-0.9,0.2-1.8,0.6-2.7,0.7c-0.8,0.1-1.3,0.3-1.1,1.2
			c0.2,0.7,0.2,1.3,0.3,2c0.2,0.7-0.2,1.1-0.8,1.2c-0.8,0.1-0.7-0.4-0.7-0.9c-0.1-1.3-0.3-1.4-1.4-0.8c-0.9,0.5-1.6,0.1-2.3-0.4
			c-0.9-0.6-1.7-1.3-2.6-2.1c0.2-0.4,0.5-1.1,0.6-1.8c0.1-0.4-0.2-1.1-0.4-1.1C430.8,254.8,430.9,253.3,430.8,251.6z"/>
		<path class="st7" d="M472.3,267.1c-0.5,1.1-1.1,2.1-1.3,3.1c-0.2,1.1-1.1,1.8-1.7,2.5c-0.3,0.4-0.7,0.7-1.3,1.2
			c-0.7-0.2-1.6-0.4-2.5-0.8c-1.1-0.5-1.3-1.5-0.9-2.5c0.5-1.4,1.3-2.6,2.5-3.5c0.2-0.2,0.6-0.1,1-0.2c0.7-0.1,1.4-0.1,2.1-0.4
			C471.3,266.3,471.6,266.4,472.3,267.1z"/>
	</g>
	<g class="st14">
		<path class="st7" d="M125.2,341.8c0-1.7,0-3.4,0-5.1c1.6,2.4,4.1,1.5,6.3,1.6c0.3-0.6,0.6-1.4,0.9-2c1.3,0.6,2.5,1.1,3.7,1.6
			c0.1-0.2,0.2-0.4,0.3-0.6c-0.4-0.6-0.7-1.3-1.4-2.4c1.4,0.4,2.6,0.3,3.2,0.9c1.2,1.1,2,0.7,3.3,0c3.7-1.9,5.1-4.4,3-8.3
			c-0.2-0.4,0-1-0.2-1.5c-0.2-0.6-0.6-1.3-1-1.5c-2.1-0.8-1.9-2.4-0.9-3.6c1.4-1.6,1.7-3.1,0.5-4.8c3.3-2.6,3.3-2.6-0.8-7.7
			c1-0.9,2-1.8,2.6-2.3c1.5,0.7,2.6,1.3,3.4,1.6c1.2-2.6,1.7-5.5,3.3-6.6c3.2-2.2,2.1-4.6,1.3-7.2c-0.1-0.3-0.2-0.6-0.2-0.9
			c0.9-0.9,1.6-1.9,2.5-2.6c0.9-0.8,2-1.5,2.9-2.3c1.3,1.9,2-0.1,2.6-0.6c3.7-2.5,5-2.5,7.8,0.2c0.1,0.1,0.3-0.1,0.6-0.1
			c0-0.4,0-0.8,0-1.2c0-3.1,0.2-3.3,3.4-2.7c2.2,0.4,4.4,0.7,6.5,0.7c1.7,0,3.8,0,3.4-2.8c0-0.4,0.4-1,0.7-1.3
			c3.5-2.9,7-5.7,10.6-8.5c0.6-0.4,1.5-0.3,2.1-0.7c0.9-0.5,2-1.1,2.3-1.9c0.8-2.5,2.6-2.6,4.4-2c1.4,0.4,2.6,1.6,4,2.4
			c-2,2.4,0.8,4.3,0.7,6.5c-0.1,2.9-0.1,5.9-0.1,8.9c0,2.2-1.4,2.9-3.1,3.4c-1.8,0.5-3.2-0.2-4-1.8c-0.7-1.2-1.2-2.6-1.6-4
			c-0.5-2-0.7-4.1-1-6.1c-0.2,0-0.4-0.1-0.6-0.1c-0.5,1.4-0.9,2.7-1.5,4.1c-0.4,0.9-0.8,2.1-1.5,2.4c-2.8,1.2-3.4,3.6-3.8,6.1
			c-0.1,0.8,0.9,1.8,1.4,2.6c0.6-0.6,1.2-1,1.7-1.7c0.5-0.6,0.7-1.4,1.1-2.1c0.7,1.1,0.7,2.1,1,2.9c0.3,0.8,0.9,1.5,1.4,2.3
			c0.6-0.5,1.1-1.1,1.8-1.5c0.9-0.5,1.9-1.1,2.8-0.9c1.4,0.2,3.2,0.6,4,1.6c1.3,1.6,2,1.9,3.4,0.4c1.4-1.5,3-2.8,4.5-4.2
			c0.3-0.3,1-0.4,1.3-0.2c0.3,0.2,0.4,0.9,0.3,1.3c-0.1,0.6-0.4,1.2-0.4,1.2c-1.6,0.6-2.8,0.7-3.5,1.3c-0.5,0.5-0.6,2.2-0.1,2.5
			c0.8,0.6,2,0.9,3.1,1c2.2,0.2,4.5,0.1,6.7,0.4c1.4,0.2,2.8,0.7,4.2,1.1c-1,1.6-0.7,2.5,1.7,2.9c2.2,0.4,4.2,1.7,6.3,2.7
			c0.1,0.4,0.1,0.8,0.2,1.2c1-1.1,2.1-2.1,3.4-3.4c4.6,1.9,4.4,7.6,8,10.9c0.6-1.8,0.6-3.6,1-5.3c0.7-2.2,1.4-4.6,2.7-6.4
			c1.1-1.6,3.1-2.6,4.8-3.6c0.8-0.4,2.3-0.7,2.8-0.3c0.6,0.5,0.8,2,0.5,2.8c-1.2,3.2-2.7,6.3-4,9.4c-0.5,1.1-1.2,2.2-1.1,3.3
			c0.1,3.4-2.2,5.2-4.5,7c-1,0.8-2.2,1.3-3.4,0.2c-0.3-0.3-1-0.3-1.7-0.4c0.5,2.3,2,3,3.8,3.1c2.6,0.2,6.9-2.8,7.7-5.4
			c0.4-1.2,0.7-2.7,2.2-1.8c0.8,0.4,1.4,2.2,1.1,3c-0.9,2.4-0.1,3.5,1.9,4.1c-0.2-1.2-0.9-2.5-0.6-3.5c0.9-2.7,0.5-4.7-2.3-5.6
			c-2.3-0.8-1.8-1.9-1.1-3.5c0.7-1.3,1.7-2.7,1.8-4c0.1-2.4,1.2-3.5,3.3-3.9c-0.7,4.1-0.4,4.8,3.4,6c-0.9-1.5-1.6-2.7-2.4-4
			c0.1-0.1,0.3-0.2,0.4-0.4c0.6,0.3,1.3,0.5,2,0.8c0.3-0.6,0.7-1.2,1.2-2.1c0.9,1,1.7,1.7,2.4,2.5c0.7,0.8,1.3,1.7,2,2.5
			c-1.9,1.9-1.9,7.2,0.1,8.1c0.2-1.7,0.4-3.4,0.6-5.1c0.2-2.1,1.2-4.1-0.1-6.4c-0.8-1.3-0.8-3.1-1.3-5.1c2.8,0.2,5-0.1,6.8,0.6
			c2.3,0.9,2.4-0.2,2.6-1.8c0.5-3.9,6-7.4,9.7-6.3c2.3,0.7,6.1-1.7,6.7-4c0.4-1.5,1.2-2.7,2.5-2.8c1.3,1.7,2.4,3,3.4,4.4
			c2.3-1.6,4.4-1.3,6.1,0.6c1.4,1.6,1.4,4.2,0.1,5.9c-2.1,2.7-4.2,5.4-6.3,8.2c3.5-0.1,5.6-5.6,9.8-2.4c1.6-2,3.4-2.9,5.9-1.6
			c3.7,1.8,6.1,0.6,6.6-3.4c0.9-0.1,1.8,0,2.7-0.2c2.3-0.6,4.9,0.9,5.2,3.2c0.4,2.8,2.5,4.5,5.7,4.2c0-1.3,0-2.6,0-3.9
			c0.2,0.2,0.4,0.3,0.5,0.5c0.9-0.6,1.8-1.3,2.7-1.8c0.6-0.3,1.4-0.6,2.1-0.7c0.6-0.1,1.3,0.1,2.2,0.1c0.1-1.5,0.6-3.1,0.2-4.3
			c-1-2.7-0.8-3.4,1.5-5c2.2-1.4,3.5,0.1,5.2,1.3c0.3-1.1,0.4-2,0.7-2.9c0.6-2.1,1.7-2.4,3.3-1c0.2,0.1,0.4,0.3,0.6,0.3
			c3,0.6,6-0.8,7.5-3.6c1.7-3.2,4.1-3.9,7.3-2.1c1.6,0.9,3.6,0.2,4.1-1.5c1.3-4,3.6-7,8.1-7.7c0.5-0.1,0.9-0.6,1.3-0.9
			c-0.4-0.5-0.7-1.1-1.2-1.4c-0.4-0.3-1.1-0.1-1.4-0.4c-0.5-0.5-1.1-1.5-0.9-1.8c1.5-2.4,2.7-5.4,4.9-6.9c5.2-3.6,10.1-8.2,17.2-8
			c0.1,0,0.3-0.3,0.6-0.6c-0.8-0.3-1.5-0.6-3-1.1c2.3-2,4.1-3.7,5.9-5.3c0.2,0,0.3,0,0.5,0c0.4,1.5,0.8,3.1,1.1,4.6
			c1.3,0.6,2.8,1.3,4.5,2c-2,1.9-2.6,4.9-5.9,4.2c-0.2-0.1-0.9,0.7-0.9,1.1c-0.5,3-2.1,3.2-4.8,2.1c0.4,1.1,0.8,2,1.5,2.3
			c3.6,1.3,4.3,4,1.6,6.7c-0.3,0.3-0.4,0.8-0.9,1.9c4.2-2.9,8-1.6,11.7-1.5c0.3,0.4,0.5,0.8,0.8,1.3c-1.1,0.9-2.2,1.9-3.3,2.8
			c1,5.3,2,10.9,2.9,15.7c-1.3,1.9-2.6,3.1-3.2,4.6c-0.8,2-1.1,4.2-1.7,6.3c-0.1,0.4-0.6,0.6-0.7,0.9c-0.2,0.7-0.6,1.6-0.3,2.1
			c1.4,2.6,2.9,5,4.5,7.6c1-0.8,1.5-1.3,2.4-2c-0.1,4.2,4.3,1.6,5.3,4.1c-1.9,2-1.4,3.9,1.4,5.2c1.1,0.5,2,0.9,1.3,2.4
			c-0.9,2-0.8,3.9,1,5.5c0.3,0.2,0.6,0.8,0.5,1.1c-1.3,2.5,0.6,4.2,1.5,6.2c0.4,1,0.8,2.1,0.9,3.1c0.1,0.6-0.3,1.4-0.5,2
			c-0.6-0.2-1.3-0.3-1.8-0.6c-2.5-1.7-5-3.4-7.4-5.3c-5.7-4.5-11.7-8.7-10.2-17.4c0.2-1-0.5-2.1-0.8-3.1c-0.4-1.6-0.8-3.1-1-4.7
			c-0.3-2.2-0.3-4.4-0.6-6.6c0-0.5-0.4-0.9-0.7-1.3c-1.3-1.8-2.7-3.5-4.1-5.4c-1.3,0.9-1.8,2-0.7,3.7c1.6,2.3,1.6,4.8,1.4,7.9
			c-1.3-1-2.2-1.8-3.1-2.5c-0.7,0.6-1.4,1-1.8,1.6c-0.8,1.5-2.1,3.1-2,4.6c0.1,2.8,1,5.6,1.8,8.4c0.2,0.8,1.4,1.3,2.2,2
			c-1,1.7-2.5,3.2-5.3,3.6c-1.7,0.3-3.9,1.1-4.5,3.5c-0.2,0.7-1,1.3-1.6,1.9c-1.5,1.2-3.1,2.3-4.6,3.6c-2.3,1.9-3.8,3.9-3.7,7.3
			c0.1,3.8-1,7.7-1.7,11.5c-0.5,2.8-1,5.6-1.7,8.4c-0.5,1.8,0.3,1.9,1.7,2.1c2.1,0.2,4.2,0.7,6.4,1c0.4-0.9,2.7-1.3,1.3-3.3
			c0,0,0.9-1,1.4-1c3-0.5,7.8,3.2,8.7,6.2c0.8,2.8,2.2,5.4,3.1,8.1c0.8,2.3,1.9,4.6,1.9,6.9c-0.1,7.2-0.5,14.5-1.1,21.7
			c-0.3,4.9-3.3,7.4-8.1,7.2c-0.2,0-0.5,0.1-0.6,0.1c-0.5,1.4-0.9,2.6-1.4,3.9c-0.3,0-0.7,0-1,0c0.2-1.1,0.7-2.3,0.5-3.4
			c-0.2-1.4-1-2.7-1.6-4c-1.2-2.3-0.7-3.5,1.7-4.4c0.7-0.2,1.6-0.9,1.7-1.5c0.3-1.6,0.4-3.3,0.1-4.9c-0.7-3.1-1.7-6.2-2.6-9.6
			c-1.7,2.1-3.3,3.9-4.7,5.8c-1.6,2.2-3.6,2.8-4.9,0.8c-1.9-3.1-4.8-2.5-7.6-2.7c-1.4-0.1-2.8-0.2-4-0.6c-1.3-0.4-2.4-1.3-3.5-2
			c-0.1-0.1-0.2-0.2-0.3-0.4c0.3-0.3,0.7-0.6,1-0.9c-5.5-7-11.9-8.1-18.1-3.1c-1.4,1.1-1.9,2-0.4,3.4c0.5,0.5,0.7,1.6,0.6,2.3
			c-0.4,2.7-0.7,5.5-1.5,8.2c-0.4,1.4-1.7,3.3-2.8,3.5c-2.3,0.4-4.8,0-7-0.7c-2-0.6-3.2,0-4.6,1.1c-1.7,1.3-3.3,2.7-5.1,3.8
			c-3.2,2-6.4,1.3-9.6-0.1c-3.2-1.3-6.1-3.4-9.9-1.9c-3.1,1.3-4.4,0.6-6.2-2.3c-0.6-0.9-1.5-1.9-2.4-2.4c-2.3-1.1-4.7-2-7-3
			c-0.5,0.9-1.2,1.8-1.6,2.9c-0.4,1.2-1,2.6-0.7,3.8c0.5,2.1-0.8,3.4-2.1,3.3c-2.1-0.1-4.9-0.5-6.2-1.9c-2.4-2.6-5-2.9-7.8-2.1
			c-2.4,0.7-5,0.9-7.3,2.7c-1.7,1.4-4.1,1.3-6.8-0.2c-3.1-1.7-5.3-3.6-6.5-7c-0.3-0.9-2.4-1.3-3.7-1.8c-1-0.4-2.2-0.7-3.2-1.2
			c-0.6-0.3-1-1.1-1.6-1.7c-0.7,0.5-1.2,1-2.1,1.7c-0.2-1.7-0.3-3-0.5-4.3c-0.5-3.5-0.3-7.3-2.8-10.3c-0.3-0.4,0.1-1.4,0.2-2.6
			c-1.2,0.2-2.5,0.6-3.7,0.6c-1.4,0-3.1,0.2-4-0.6c-1.7-1.4-2.9-3.3-4.6-5.5c0.7-3.6-0.3-5.8-3.8-5.7c-6.8,0.1-13-2.3-19.7-4.3
			c-0.2,1.1-0.5,2.2-0.7,3.1c-1,0.4-1.9,0.6-2.7,1.1c-0.8,0.5-1.6,1.2-2.9,2.2c0,1,0,2.9,0,5.6c-2.2-2.3-5.2-2.3-6.3-5.4
			c-0.5-1.4-2.7-2.6-4.3-3c-1.7-0.4-3.1-0.5-3.2-2.7c0-0.4-1.1-0.7-1.7-1c0.4-4-2.1-6.5-4.9-8.4c-1.4-0.9-3.8-0.9-5.6-0.7
			c-1.3,0.2-2.5,1.4-3.9,2.3c-0.1-0.3-0.5-0.6-0.4-1c0.3-2.8-1.4-2.8-3.2-2c-1.8,0.8-3.4,2-5,3.1c-0.3,0.2-0.5,0.8-0.4,1.1
			c0.4,1.5-1.1,3.2,0.7,4.6c0.4,0.3,0,1.9-0.3,2.9c-0.3,1.1-0.9,2.1-1.3,3.2c-3.1,0-6.7,0-10.5,0c0.2,2.5-2.1,4.6,0.9,6.5
			c-3.6-0.8-4,1.5-4.5,3.9c-0.2,1-1.1,2.5-1.9,2.6c-1.8,0.3-2.3-1.2-2.5-2.8c-0.3-2.6-0.7-5.1-1.1-7.7c-0.1-0.7-0.7-1.3-1-1.9
			c-0.7-1.3-1.4-2.5-2.1-3.8c-0.4-0.8-0.6-1.7-1-2.5c-1.9-3.5-4.1-6.9-4-11.2C125.6,343.4,125.3,342.6,125.2,341.8z"/>
		<path class="st7" d="M239.6,283.5c0.2-0.7,0.1-1.9,0.6-2.3c1.8-1.2,3.7-2.4,5.7-3.1c1.7-0.6,3.6-0.5,5.4-0.4
			c2.3,0.1,4.7,0.3,7,0.6c0.5,0.1,1,0.5,1.6,0.8c-0.5,0.4-0.9,1.1-1.4,1.1c-3,0.3-6.1,0.2-9,0.7
			C246.3,281.4,243.3,282.5,239.6,283.5z"/>
		<path class="st7" d="M231,285.7c1.6-0.9,3.4-2,5.4-2.8c0.6-0.3,1.6,0.4,3,0.8c-3.2,2.8-5.6,5.6-4.9,10.1c-1.7-1.5-3-2.4-2.4-4.6
			C232.3,288.3,231.5,287.1,231,285.7z"/>
		<path class="st7" d="M331,277.4c1.5,0.3,2.4,0.5,3.5,0.8c-0.1-0.6-0.1-1.2-0.2-2c1.2,0,2.4-0.1,3.5,0c0.5,0.1,0.9,0.6,1.4,0.9
			c-0.3,0.4-0.7,0.8-1,1.1c-1,1-2,1.9-2.9,2.9c-1.6,1.6-2.7,1.6-3.7-0.5C331.3,279.9,331.3,278.9,331,277.4z"/>
		<path class="st7" d="M290.2,277.9c-2-0.5-4.1-0.8-3.7-3.2c0.1-0.8,1.7-2.1,2.4-2C291.3,273.2,291.6,274.5,290.2,277.9z"/>
		<path class="st7" d="M136.2,279.9c0.1-0.1,0.9-0.2,1.1-0.6c0.6-0.8,0.9-2.2,2.1-1.2c1.1,1,2.8,2,1.9,4.1c-0.2,0.4-0.6,1.1-0.9,1.1
			c-0.5,0-1-0.4-1.4-0.7C138,281.7,137.1,280.8,136.2,279.9z"/>
		<path class="st7" d="M293.3,275.5c1.2,1.5,2,2.5,2.8,3.6c-1.5,0.7-3.1,1.4-4.6,2.1c-0.1-0.2-0.2-0.3-0.4-0.5
			C291.8,279.1,292.4,277.6,293.3,275.5z"/>
		<path class="st7" d="M288.4,267.8c0.8,1.7,1.4,3.2-0.7,4c-0.6,0.2-1.8,0.1-1.9-0.2C284.9,269.2,287,268.9,288.4,267.8z"/>
		<path class="st7" d="M380.1,248.7c-0.1,1.8-0.2,3.1-0.3,4.5C378.2,251.7,377.1,250.3,380.1,248.7z"/>
		<path class="st7" d="M340.4,274.8c1.4-0.5,2.8-0.9,4.2-1.4c0.1,0.3,0.3,0.6,0.4,0.9c-1.4,0.6-2.7,1.2-4.1,1.7
			C340.7,275.6,340.5,275.2,340.4,274.8z"/>
		<path class="st7" d="M342.9,285.2c-1.1,0.1-2.2,0.3-3.3,0.4c0-0.5-0.1-1.3,0-1.3c1-0.2,2.1-0.3,3.2-0.5
			C342.8,284.3,342.9,284.8,342.9,285.2z"/>
		<path class="st7" d="M410.3,367.6c-0.7,0-1.3,0.1-2,0.1c-1.5,0.1-2.1,0.9-1.7,2.4c1.1,4.2,2.7,7.9,7.7,8.6c1.6,0.3,2,1.2,1.7,2.7
			c-2.5-0.8-3.1-0.2-2.7,3.5c-1.2-1.3-2.3-2-2.7-3c-2.8-7.1-8.9-11.9-12.1-18.7c-0.2-0.4-0.5-0.8-0.9-0.9c-3.7-1-4.6-4.5-6.1-7.3
			c-0.2-0.3-0.1-0.8-0.2-1.2c-0.3-1.2-0.6-2.3-1-3.5c-0.1-0.4-0.3-0.8-0.1-1.4c2,1.9,4.9,3.4,6,5.7
			C399.2,361,405.9,362.9,410.3,367.6z"/>
		<path class="st7" d="M425.5,376c-1.7-3.4-0.4-5.5,1.5-7.4C426.5,370.9,426.1,373.1,425.5,376z"/>
	</g>
	<path class="st13" d="M198.5,134.5c0.2,0,0.3,0,0.5,0c0.4,1.1,1.1,2.2,1.2,3.4c0.1,1.1,0,2.2,1.5,2.3c-0.3,0.5-0.5,0.9-0.7,1.3
		c0.1,0,0.3-0.1,0.4-0.1c0.4,1.2,1,2.3,1.3,3.6c0.4,1.7,0.4,3.5,0.7,5.2c0.1,0.6,0.4,1.4,1.3,1c0.7-0.3,1.3-0.7,1.7-0.9
		c1.3,1.4,2.4,2.6,3.3,3.5c0.2,1.6,0.3,3,0.4,4.4c0,0.5,0.1,0.9,0.2,1.4c0.1,0.7,0.1,1.6,0.5,1.9c1,0.8,1.2,1.9,1.4,2.9
		c0.2,0.8,0.4,1.6,0.2,2.3c-0.3,1.1-0.6,2.1,0.6,2.9c0.1,0.1,0.2,0.5,0.1,0.7c-0.6,1.2,0.3,1.6,1,2.2c0.7,0.5,1.7,0.4,2.2,1.2
		c0.1,0.1,0.6,0,1.1,0c0.1,1,0.8,1.7,1.6,2.3c0.6,0.5,1.2,1.3,1.8,1.4c1.6,0,1.7,1.1,2.2,2.2c-0.4,0-0.7-0.1-1.1-0.1
		c0.3,0.6,0.4,1.1,0.8,1.3c1.6,1.1,1.8,2.8,2,4.5c0.1,0.9,0.4,1.8,0.8,3c0.6-0.7,0.9-1.1,1.2-1.4c0.6,0.7,1.1,1.3,1.6,2
		c0.2-0.4,0.4-0.6,0.5-0.9c1,0.8,0.9,1.7,0.7,2.7c-0.1,0.9-0.4,2.1,0,2.6c0.9,0.9,1,2.7,2.8,2.6c0.1,0,0.2,0.3,0.3,0.5
		c0.7,1.1,1.6,2.2,2.1,3.4c0.4,1,0.6,2,1.5,2.6c0.1,0.1,0.1,0.5,0,0.6c-0.5,1,0.1,1.5,0.8,2c0,0.2,0,0.3,0,0.5
		c-0.2,0.4-0.5,0.9-0.6,1.3c-0.1,1-0.1,1.9-0.2,2.9c0,0.6-0.2,1.2-0.2,1.8c0.1,0.7,0.3,1.4,0.5,2.1c0.1,0.4,0.3,0.8,0.4,1.2
		c0,0.3,0,0.7,0,1c-0.2,1.4-1.1,2.5-1.4,3.7c-0.6,2.5-2.7,4.5-2.5,7.2c0,0.1-0.1,0.2-0.2,0.3c-0.9,1.7-1.9,3.5-2.8,5.2
		c-0.1,0.2-0.4,0.3-0.6,0.5c-1.6,1-3.3,1.9-4.3,3.7c-0.6,1.2-1.2,2.3-2.2,3.3c-0.6,0.6-0.7,1.7-1.1,2.5c-0.2,0.4-0.4,0.7-0.6,1
		c-0.2,0.2-0.5,0.3-0.8,0.6c-1.6,1.8-2,4.3-3,6.4c-0.1,0.2-0.1,0.4-0.1,0.6c0.1,1.9-1.3,3.1-3.1,2.8c-2.7-0.4-5.2-0.4-7.3,1.8
		c-0.6,0.6-1.6,0.9-2.4,1.3c-0.1,0.4-0.3,1-0.4,1.5c-0.9-0.8-1.5-1.6-2.3-2.1c-0.9-0.5-1.2-1-0.6-2.1c-0.6,0.4-1.2,0.8-1.7,1.1
		c-1.3-1.4-1.6-1.4-3-0.4c-0.6,0.5-1.2,0.9-1.8,1.4c-0.6-0.4-1.1-0.7-1.6-1c-1.3-0.7-2.5-1.3-3.8-1.9c-0.2-0.1-0.6,0-0.8,0.1
		c-0.6,0.7-0.8,0.1-1.1-0.2c-0.4-0.4-0.8-1-1.3-1.1c-2.5-0.4-2.9-2.7-3.8-4.4c-0.1-0.3,0.1-0.7,0.2-1.1c0.1-0.4,0.2-0.7,0.1-1.1
		c-0.3-1.6-1.1-3-2.3-4.1c-0.5-0.4-0.9-0.8-1.7-0.3c-0.4,0.3-1.1,0.1-1.6,0.1c-0.1-0.1-0.2-0.2-0.3-0.3c2.7-1.8,1.8-3.8,0.5-6.1
		c-0.5,1.5-0.9,2.8-1.3,3.9c-1.3,0.3-2.3,0.5-3.3,0.7c0.1-1.4,0.9-2,2.2-1.8c0-0.6-0.1-1.1,0-1.5c0.3-1.1,0.5-2.2,1-3.2
		c0.3-0.7,1-1.1,0.6-2c-0.1-0.2,0.3-0.7,0.5-1.1c-0.1-0.1-0.3-0.4-0.6-0.9c-0.7,1.1-1.2,2-1.8,2.8c-0.2,0.3-0.5,0.8-0.8,0.9
		c-2.5,1-4,2.6-4.2,5.7c-1-0.7-1.9-1.4-2.8-2.1c-0.1-0.1-0.1-0.4-0.1-0.6c1,0.1,0.6-0.5,0.4-0.9c-0.6-1.3-1.2-2.6-1.9-3.9
		c-0.2-0.3-0.7-0.4-1.1-0.7c-0.5-0.4-1.1-0.7-1.4-1.2c-0.1-0.3,0.3-0.9,0.6-1.5c-0.4,0-0.9-0.1-1.5-0.1c0.4-0.8,0-1.5-0.9-1.4
		c-1.1,0.1-1.9-0.2-2.8-0.8c-0.2-0.2-0.7-0.3-0.8-0.2c-1.2,0.9-1.9-0.2-2.8-0.7c-0.9-0.5-1.8-0.9-2.8-1c-0.9-0.1-1.8,0.3-2.8,0.4
		c-2.2,0.2-4.4,0.3-6.4,1.5c-2.5,1.4-5.2,2.5-8.3,2.2c-0.6-0.1-1.3,0.4-1.9,0.8c-1.3,0.7-2.4,1.8-3.7,2.3c-1.3,0.5-2,1.1-2.1,2.5
		c-0.1,1.1-2.1,3-2.8,2.6c-1.4-0.7-2.5,0.1-3.6,0.4c-1.1-0.2-2.1-0.4-3.2-0.2c-1.5,0.2-3,0.5-4.4,1c-0.6,0.2-1.2,1-1.5,1.6
		c-0.3,0.6-0.5,1.1-1.4,1c-0.3,0-0.8,0.3-1.1,0.6c-1.2,1-1.7,2.7-3.6,2.7c-0.7,0-1.4-0.1-2,0.1c-2,0.4-3.7,0-5.2-1.3
		c-0.5-0.4-1.3-0.9-1.7-0.7c-1.2,0.4-1.3-0.4-1.4-1.1c-0.2-0.7-0.2-1.5-0.4-2.4c1.2,0.6,1.8,0.3,1.9-0.8c0.1-0.7,0-1.3-0.1-2
		c0-0.5-0.3-0.9-0.3-1.4c0.3-1.9-0.1-3.5-1.3-5c-1.7-2.1-3-4.4-3.4-7.1c-0.1-0.9-0.6-1.8-1.1-2.5c-0.9-1.3-2-2.5-3-3.8
		c-0.2-0.3-0.2-0.6-0.3-1c-0.2-0.7-0.3-1.5-0.7-2c-0.9-1.1-2-2.1-3-3.2c-0.5-0.6-1.3-1.1-0.3-2.1c0.6,0.8,1.1,1.5,1.7,2.2
		c0.1-0.1,0.3-0.1,0.4-0.2c-0.2-0.4-0.2-0.9-0.5-1.1c-1.2-0.9-1.8-2-1.3-3.3c0.6,0.9,1.1,1.7,1.5,2.4c0,0,0.1-0.3,0.2-0.6
		c0.3,0.6,0.6,1.2,0.9,1.8c0.1,0,0.3-0.1,0.4-0.1c-0.1-0.8,0-1.7-0.4-2.4c-1.3-1.9-2.7-3.7-4.1-5.6c0-0.8,0-1.6,0-2.3
		c0.2-0.5,0.4-0.9,0.7-1.3c0.6-1.1,0.3-3-0.7-3.8c0-0.3,0-0.5,0-0.8c0.2-0.8,0.5-1.5,0.8-2.2c0.2-0.4,0.5-0.8,0.9-1.5
		c0.1,1.1,0.2,1.7,0.3,2.4c0,0.2,0.3,0.4,0.5,0.6c0.1-0.2,0.3-0.4,0.4-0.7c0.4-0.9,0.6-2.1,1.3-2.5c1.8-1.1,3.2-2.5,4.6-4
		c0.9-1,2-1.7,3.1-2.6c0,0.2,0.1,0.4,0.1,0.4c0.7,0,1.3,0.1,1.9,0c0.7-0.2,1.5-0.3,1.9-0.8c0.7-0.8,1.5-1.2,2.6-1.5
		c0.7-0.2,1.2-0.8,1.8-1.2c0.3-0.2,0.7-0.5,1.1-0.6c1.3-0.3,2.6-0.3,3.8-0.8c2.5-1,4.8-2.3,5.5-5.3c0.2-0.7,0.8-1.3,1.4-1.9
		c0.5-0.5,1.1-0.9,1.9-1.6c-0.7-0.1-1-0.1-1.2-0.2c-0.6-0.7-0.4-3.2,0.2-4.1c0.8-1,1.6-2,2.4-3c0.1-0.1,0.4-0.2,0.3-0.1
		c0.8,1.4,1.5,2.8,2.3,4.1c0.1,0,0.2-0.1,0.3-0.1c0-0.5,0-1,0-1.6c0.3,0,0.6,0,1.2,0c-1.3-1.1-2.3-2.1-1.3-3.8c0.9,0.2,2,0.5,3,0.8
		c0.2-0.8,0.6-1.6,0.1-2.6c-0.4-0.8,0.4-1.2,1-1.7c0.7-0.7,1.4-1.5,1.9-2.1c0.3-0.7,0.4-1.3,0.8-1.7c0.4-0.5,0.9-0.8,1.5-1.3
		c0.2,0.2,0.6,0.6,1.1,1c0.4-1,0.4-1,0.1-2c0-0.2,0.4-0.4,0.6-0.7c0.2,0.2,0.5,0.5,0.6,0.7c0.4-0.2,0.7-0.5,1.1-0.7
		c0.1,0.3,0.1,0.5,0.2,1.1c0.3-0.7,0.4-1.1,0.7-1.5c0.2-0.3,0.6-0.7,0.8-0.6c1.1,0.6,2.3,1.1,3.3,1.9c0.8,0.7,1.3,1.7,2,2.5
		c0.1-0.1,0.2-0.2,0.3-0.3c-0.2,0.5-0.3,1-0.5,1.6c0.7-0.6,1.3-1.5,1.9-1.5c1.4,0,2.8,0.4,4.3,0.6c0.3-0.8,0.3-1.3-0.5-1.8
		c-0.3-0.2-0.4-0.9-0.3-1.2c0.3-0.6,1-0.9,1.2-1.5c0.3-1,0.3-2.1,1.8-2.2c0.1,0,0.2-0.3,0.2-0.2c-0.1-0.8-0.4-1.4-0.2-1.8
		c0.3-0.6,0.9-1,1.3-1.5c0.3-0.3,0.4-0.8,0.8-1c0.9-0.5,1.9-0.9,2.9-1.4c0.5,0.8,1.9,1.1,3.2,0.7c0.6-0.2,1.3-0.3,1.7-0.7
		c0.4-0.3,0.5-1.1,0.4-1.6c-0.1-0.4-0.8-1-1-0.9c-1.2,0.5-1.7-0.4-2.6-1c1.8-1.1,3.1-0.8,4.1,0.8c0.4-0.3,0.6-0.5,0.9-0.7
		c1.6,1.8,1.6,1.7,3.8,1.6c0.2,0,0.4,0.1,0.5,0.2c1.4,1.2,2.1,1.4,3.5,0.9c0.5,0.4,1,0.8,1.3,1.1c1.3-0.4,2.4-0.8,3.8-1.2
		c-0.5,0.5-0.8,0.8-1.3,1.4c0.7-0.3,1.2-0.5,1.5-0.6c0.2,0.5,0.4,1,0.6,1.4c0,0,0.3-0.1,0.5-0.1c-0.1-0.4-0.2-0.7-0.4-1.2
		c0.5-0.3,1-0.6,1.2-0.8c0.9,0.7,1.6,1.3,1.9,1.6c-0.4,1.2-0.7,2.2-1.2,3.1c-0.3,0.5-0.4,1.7-1.7,1.1c-0.7-0.3-1.3,0.4-1.4,1.1
		c0,0.2,0.3,0.5,0.5,0.8c0.1,0,0.3,0,0.4,0c-0.9,1.4-1.8,2.7-2.5,4.2c-0.2,0.3-0.2,1,0.1,1.2c1.3,1.1,2.6,2.1,4,3.1
		c0.9,0.6,2,0.9,2.9,1.4c1.3,0.7,2.6,1.4,3.5,2.7c0.3,0.5,1.2,0.6,1.8,0.8c1.1,0.4,2.5,0.5,2.8,2.1c0,0.3,0.4,0.5,0.7,0.7
		c0.8,0.5,1.6,0.9,2.3,1.3c0.9,0.5,3.3,0,3.7-0.9c0.7-1.5,1.4-3,2-4.5c0.4-0.9,0.4-2,0.7-3c0.5-1.4,1.1-2.8,0.5-4.3
		c-0.1-0.3,0.1-0.8,0.1-1.1c0-0.4,0-0.8-0.1-1.2c0-0.5-0.2-1.1-0.1-1.6c0.1-1,1.1-1.8,0.5-2.9c-0.1-0.1,0.2-0.4,0.4-0.6
		c0.7-0.7,0.6-1.1-0.5-1.3c0.7-1.5,1.5-2.9,2.1-4.3C197.1,136.9,197,135.4,198.5,134.5C198.5,134.6,198.5,134.6,198.5,134.5z
		 M199.2,254.2c0.1,0.1,0.2,0.2,0.3,0.3c0.3-0.4,0.6-0.8,0.7-1.2c0.1-0.2-0.2-0.5-0.3-0.8c-0.4,0.2-0.7,0.4-1,0.6
		C199,253.4,199.1,253.8,199.2,254.2z"/>
	<path class="st8" d="M50.9,583.5c-0.5-0.7-0.9-1.8-1.5-1.9c-14.3-2.5-15.6-14.8-17.3-25.2c-1.1-7-1.5-13.9-4.3-20.5
		c-2.5-6.1-3-12.4,0.8-19.4c6.6,3.8,13.1,7.8,19.9,11.3c2.2,1.2,5.2,2,7.6,1.6c7.9-1.3,15.7-3.6,23.7-4.5c1.7-0.2,5.6,4,5.4,5.9
		c-1,9.4-3,18.7-4.9,29.5c-0.9-2.7-1.4-4.1-1.8-5.6c-0.5,0-0.9-0.1-1.4-0.1c-0.4,3.3-0.7,6.6-1.1,9.6c-1.4,3.9-2.9,7.8-4.7,12.8
		c-2.1-1.5-4.3-3.1-6.7-4.8c-1,2.8-2,5.8-3,8.8c-0.4-0.4-0.7-0.8-1.1-1.2c-1.9,1.2-3.8,2.5-5.7,3.7
		C53.4,583.5,52.2,583.5,50.9,583.5z"/>
	<path class="st8" d="M82.5,516.5c1.1-5.3-6.7-9.2,1.5-14.1c1.5,4,3,7.6,4,11.4C88.1,514,85.2,515.2,82.5,516.5z"/>
	<path class="st8" d="M15.5,505.2c0.7-3.8,1.4-7.6,2.1-11.4c0.9-0.1,1.7-0.1,2.6-0.2c0.5,2.4,1.7,4.9,1.3,7.1
		c-0.3,2.1-2.3,3.9-3.6,5.8C17.1,506.1,16.3,505.6,15.5,505.2z"/>
</g>
</svg>
