<svg xmlns="http://www.w3.org/2000/svg" width="272" height="46"><title>Group</title><desc>Created with Sketch.</desc><g fill="none"><g><g><path id="Shape" fill="#fff" d="M28.25 20.57H17.08L19.5 9.62h10.33c3.4 0 5.4 1.83 5.4 4.5 0 3.52-2.58 6.45-6.98 6.45m18.43-7.53C46.68 5.52 40.88 0 30.74 0H10.1L0 46h11.5l3.48-15.8h6.73L28.4 46h11.47l-7.13-16.56c8.55-1.34 13.94-8.2 13.94-16.4"/><path id="Shape" fill="#fff" d="M66.52 28.78l9.86-16.96 3.73 16.96H66.53zM71.72 0L45 46h11.47l4.47-7.63h21.28L83.9 46h11.47L85.3 0H71.72zM128.3 20.57h-10.2l2.4-10.95h8.88c3.5 0 5.65 1.67 5.65 4.5 0 3.52-2.65 6.45-6.72 6.45M130.55 0H111.1L101 46h11.48l3.5-15.82h12.82c10.96 0 17.6-8.26 17.6-16.97 0-7.76-6.05-13.2-15.86-13.2"/><path id="Shape" fill="#fff" d="M168.62 0h-11.5L147 46h11.5z"/><path id="Shape" fill="#e85e26" d="M250.98 0h-36.26c.55.56 1.1 1.14 1.6 1.75 4.06 4.92 6.2 11.1 6.2 17.9 0 10.5-4.42 19.97-11.52 26.35h22.2l10.55-26.22h-13.2l2.2-10.17h26.22L245.2 46h5.4c12.57.08 21.07-10.36 21.07-23.04S263.57 0 250.97 0"/><path fill="#fff" d="M186.96 36.4h-6.35l5.9-26.78h6c6.58 0 10.27 4.93 10.27 11.1 0 8.3-5.92 15.68-15.8 15.68M210 7.5C206.06 2.7 199.55 0 191.87 0h-14.74L167 46h18.55c7.2 0 12.74-1.6 16.97-4.15 8.6-5.22 11.65-14.4 11.65-22.2 0-4.86-1.52-8.98-4.16-12.15"/></g></g></g></svg>